<svg width="857" height="461" viewBox="0 0 857 461" fill="none" xmlns="http://www.w3.org/2000/svg">
<path d="M1.14773 17V5.36364H5.60227C6.44318 5.36364 7.14205 5.49621 7.69886 5.76136C8.25947 6.02273 8.67803 6.38068 8.95455 6.83523C9.23485 7.28977 9.375 7.80492 9.375 8.38068C9.375 8.85417 9.28409 9.25947 9.10227 9.59659C8.92045 9.92992 8.67614 10.2008 8.36932 10.4091C8.0625 10.6174 7.7197 10.767 7.34091 10.858V10.9716C7.75379 10.9943 8.14962 11.1212 8.52841 11.3523C8.91098 11.5795 9.22348 11.9015 9.46591 12.3182C9.70833 12.7348 9.82955 13.2386 9.82955 13.8295C9.82955 14.4318 9.68371 14.9735 9.39205 15.4545C9.10038 15.9318 8.66099 16.3087 8.07386 16.5852C7.48674 16.8617 6.74811 17 5.85795 17H1.14773ZM3.25568 15.2386H5.52273C6.28788 15.2386 6.83902 15.0928 7.17614 14.8011C7.51705 14.5057 7.6875 14.1269 7.6875 13.6648C7.6875 13.3201 7.60227 13.0095 7.43182 12.733C7.26136 12.4527 7.01894 12.233 6.70455 12.0739C6.39015 11.911 6.01515 11.8295 5.57955 11.8295H3.25568V15.2386ZM3.25568 10.3125H5.34091C5.70455 10.3125 6.0322 10.2462 6.32386 10.1136C6.61553 9.97727 6.8447 9.78598 7.01136 9.53977C7.18182 9.28977 7.26705 8.99432 7.26705 8.65341C7.26705 8.20265 7.10795 7.83144 6.78977 7.53977C6.47538 7.24811 6.00758 7.10227 5.38636 7.10227H3.25568V10.3125ZM11.5724 17V8.27273H13.6293V17H11.5724ZM12.6065 7.03409C12.2808 7.03409 12.0005 6.92614 11.7656 6.71023C11.5308 6.49053 11.4134 6.22727 11.4134 5.92045C11.4134 5.60985 11.5308 5.34659 11.7656 5.13068C12.0005 4.91098 12.2808 4.80114 12.6065 4.80114C12.9361 4.80114 13.2164 4.91098 13.4474 5.13068C13.6823 5.34659 13.7997 5.60985 13.7997 5.92045C13.7997 6.22727 13.6823 6.49053 13.4474 6.71023C13.2164 6.92614 12.9361 7.03409 12.6065 7.03409ZM20.1023 8.27273V9.86364H15.0852V8.27273H20.1023ZM16.3239 6.18182H18.3807V14.375C18.3807 14.6515 18.4223 14.8636 18.5057 15.0114C18.5928 15.1553 18.7064 15.2538 18.8466 15.3068C18.9867 15.3598 19.142 15.3864 19.3125 15.3864C19.4413 15.3864 19.5587 15.3769 19.6648 15.358C19.7746 15.339 19.858 15.322 19.9148 15.3068L20.2614 16.9148C20.1515 16.9527 19.9943 16.9943 19.7898 17.0398C19.589 17.0852 19.3428 17.1117 19.0511 17.1193C18.536 17.1345 18.072 17.0568 17.6591 16.8864C17.2462 16.7121 16.9186 16.4432 16.6761 16.0795C16.4375 15.7159 16.3201 15.2614 16.3239 14.7159V6.18182ZM25.5355 17.1705C24.6643 17.1705 23.9162 16.9792 23.2912 16.5966C22.67 16.214 22.1908 15.6856 21.8537 15.0114C21.5204 14.3333 21.3537 13.553 21.3537 12.6705C21.3537 11.7841 21.5241 11.0019 21.8651 10.3239C22.206 9.64205 22.687 9.11174 23.3082 8.73295C23.9332 8.35038 24.6719 8.15909 25.5241 8.15909C26.2325 8.15909 26.8594 8.28977 27.4048 8.55114C27.9541 8.80871 28.3916 9.17424 28.7173 9.64773C29.0431 10.1174 29.2287 10.6667 29.2741 11.2955H27.3082C27.2287 10.875 27.0393 10.5246 26.7401 10.2443C26.4446 9.96023 26.0488 9.81818 25.5526 9.81818C25.1321 9.81818 24.7628 9.93182 24.4446 10.1591C24.1264 10.3826 23.8783 10.7045 23.7003 11.125C23.526 11.5455 23.4389 12.0492 23.4389 12.6364C23.4389 13.2311 23.526 13.7424 23.7003 14.1705C23.8745 14.5947 24.1188 14.9223 24.4332 15.1534C24.7514 15.3807 25.1245 15.4943 25.5526 15.4943C25.8556 15.4943 26.1264 15.4375 26.3651 15.3239C26.6075 15.2064 26.8101 15.0379 26.973 14.8182C27.1359 14.5985 27.2476 14.3314 27.3082 14.017H29.2741C29.2249 14.6345 29.0431 15.1818 28.7287 15.6591C28.4143 16.1326 27.9863 16.5038 27.4446 16.7727C26.9029 17.0379 26.2666 17.1705 25.5355 17.1705ZM34.7699 17.1705C33.9176 17.1705 33.179 16.983 32.554 16.608C31.929 16.233 31.4441 15.7083 31.0994 15.0341C30.7585 14.3598 30.5881 13.572 30.5881 12.6705C30.5881 11.7689 30.7585 10.9792 31.0994 10.3011C31.4441 9.62311 31.929 9.09659 32.554 8.72159C33.179 8.34659 33.9176 8.15909 34.7699 8.15909C35.6222 8.15909 36.3608 8.34659 36.9858 8.72159C37.6108 9.09659 38.0938 9.62311 38.4347 10.3011C38.7794 10.9792 38.9517 11.7689 38.9517 12.6705C38.9517 13.572 38.7794 14.3598 38.4347 15.0341C38.0938 15.7083 37.6108 16.233 36.9858 16.608C36.3608 16.983 35.6222 17.1705 34.7699 17.1705ZM34.7812 15.5227C35.2434 15.5227 35.6297 15.3958 35.9403 15.142C36.2509 14.8845 36.482 14.5398 36.6335 14.108C36.7888 13.6761 36.8665 13.1951 36.8665 12.6648C36.8665 12.1307 36.7888 11.6477 36.6335 11.2159C36.482 10.7803 36.2509 10.4337 35.9403 10.1761C35.6297 9.91856 35.2434 9.78977 34.7812 9.78977C34.3078 9.78977 33.9138 9.91856 33.5994 10.1761C33.2888 10.4337 33.0559 10.7803 32.9006 11.2159C32.7491 11.6477 32.6733 12.1307 32.6733 12.6648C32.6733 13.1951 32.7491 13.6761 32.9006 14.108C33.0559 14.5398 33.2888 14.8845 33.5994 15.142C33.9138 15.3958 34.3078 15.5227 34.7812 15.5227ZM40.6974 17V8.27273H42.7543V17H40.6974ZM41.7315 7.03409C41.4058 7.03409 41.1255 6.92614 40.8906 6.71023C40.6558 6.49053 40.5384 6.22727 40.5384 5.92045C40.5384 5.60985 40.6558 5.34659 40.8906 5.13068C41.1255 4.91098 41.4058 4.80114 41.7315 4.80114C42.0611 4.80114 42.3414 4.91098 42.5724 5.13068C42.8073 5.34659 42.9247 5.60985 42.9247 5.92045C42.9247 6.22727 42.8073 6.49053 42.5724 6.71023C42.3414 6.92614 42.0611 7.03409 41.7315 7.03409ZM46.9261 11.8864V17H44.8693V8.27273H46.8352V9.75568H46.9375C47.1383 9.26705 47.4583 8.87879 47.8977 8.59091C48.3409 8.30303 48.8883 8.15909 49.5398 8.15909C50.142 8.15909 50.6667 8.28788 51.1136 8.54545C51.5644 8.80303 51.9129 9.17614 52.1591 9.66477C52.4091 10.1534 52.5322 10.7462 52.5284 11.4432V17H50.4716V11.7614C50.4716 11.178 50.3201 10.7216 50.017 10.392C49.7178 10.0625 49.303 9.89773 48.7727 9.89773C48.4129 9.89773 48.0928 9.97727 47.8125 10.1364C47.536 10.2917 47.3182 10.517 47.1591 10.8125C47.0038 11.108 46.9261 11.4659 46.9261 11.8864ZM58.679 17V5.36364H63.0426C63.9366 5.36364 64.6866 5.5303 65.2926 5.86364C65.9025 6.19697 66.3627 6.6553 66.6733 7.23864C66.9877 7.81818 67.1449 8.47727 67.1449 9.21591C67.1449 9.96212 66.9877 10.625 66.6733 11.2045C66.3589 11.7841 65.8949 12.2405 65.2812 12.5739C64.6676 12.9034 63.9119 13.0682 63.0142 13.0682H60.1222V11.3352H62.7301C63.2528 11.3352 63.6809 11.2443 64.0142 11.0625C64.3475 10.8807 64.5938 10.6307 64.7528 10.3125C64.9157 9.99432 64.9972 9.62879 64.9972 9.21591C64.9972 8.80303 64.9157 8.43939 64.7528 8.125C64.5938 7.81061 64.3456 7.56629 64.0085 7.39205C63.6752 7.21402 63.2453 7.125 62.7188 7.125H60.7869V17H58.679ZM68.8849 17V8.27273H70.8793V9.72727H70.9702C71.1293 9.22348 71.402 8.83523 71.7884 8.5625C72.1785 8.28598 72.6236 8.14773 73.1236 8.14773C73.2372 8.14773 73.3641 8.15341 73.5043 8.16477C73.6482 8.17235 73.7675 8.18561 73.8622 8.20455V10.0966C73.7751 10.0663 73.6368 10.0398 73.4474 10.017C73.2618 9.99053 73.0819 9.97727 72.9077 9.97727C72.5327 9.97727 72.1955 10.0587 71.8963 10.2216C71.6009 10.3807 71.3679 10.6023 71.1974 10.8864C71.027 11.1705 70.9418 11.4981 70.9418 11.8693V17H68.8849ZM75.2287 17V8.27273H77.2855V17H75.2287ZM76.2628 7.03409C75.937 7.03409 75.6567 6.92614 75.4219 6.71023C75.187 6.49053 75.0696 6.22727 75.0696 5.92045C75.0696 5.60985 75.187 5.34659 75.4219 5.13068C75.6567 4.91098 75.937 4.80114 76.2628 4.80114C76.5923 4.80114 76.8726 4.91098 77.1037 5.13068C77.3385 5.34659 77.456 5.60985 77.456 5.92045C77.456 6.22727 77.3385 6.49053 77.1037 6.71023C76.8726 6.92614 76.5923 7.03409 76.2628 7.03409ZM83.2074 17.1705C82.3362 17.1705 81.5881 16.9792 80.9631 16.5966C80.3419 16.214 79.8627 15.6856 79.5256 15.0114C79.1922 14.3333 79.0256 13.553 79.0256 12.6705C79.0256 11.7841 79.196 11.0019 79.5369 10.3239C79.8778 9.64205 80.3589 9.11174 80.9801 8.73295C81.6051 8.35038 82.3438 8.15909 83.196 8.15909C83.9044 8.15909 84.5313 8.28977 85.0767 8.55114C85.6259 8.80871 86.0634 9.17424 86.3892 9.64773C86.715 10.1174 86.9006 10.6667 86.946 11.2955H84.9801C84.9006 10.875 84.7112 10.5246 84.4119 10.2443C84.1165 9.96023 83.7206 9.81818 83.2244 9.81818C82.804 9.81818 82.4347 9.93182 82.1165 10.1591C81.7983 10.3826 81.5502 10.7045 81.3722 11.125C81.1979 11.5455 81.1108 12.0492 81.1108 12.6364C81.1108 13.2311 81.1979 13.7424 81.3722 14.1705C81.5464 14.5947 81.7907 14.9223 82.1051 15.1534C82.4233 15.3807 82.7964 15.4943 83.2244 15.4943C83.5275 15.4943 83.7983 15.4375 84.0369 15.3239C84.2794 15.2064 84.482 15.0379 84.6449 14.8182C84.8078 14.5985 84.9195 14.3314 84.9801 14.017H86.946C86.8968 14.6345 86.715 15.1818 86.4006 15.6591C86.0862 16.1326 85.6581 16.5038 85.1165 16.7727C84.5748 17.0379 83.9384 17.1705 83.2074 17.1705ZM92.4986 17.1705C91.6236 17.1705 90.8679 16.9886 90.2315 16.625C89.599 16.2576 89.1122 15.7386 88.7713 15.0682C88.4304 14.3939 88.2599 13.6004 88.2599 12.6875C88.2599 11.7898 88.4304 11.0019 88.7713 10.3239C89.116 9.64205 89.5971 9.11174 90.2145 8.73295C90.8319 8.35038 91.5573 8.15909 92.3906 8.15909C92.9285 8.15909 93.4361 8.24621 93.9134 8.42045C94.3944 8.59091 94.8187 8.85606 95.1861 9.21591C95.5573 9.57576 95.849 10.0341 96.0611 10.5909C96.2732 11.1439 96.3793 11.803 96.3793 12.5682V13.1989H89.2259V11.8125H94.4077C94.4039 11.4186 94.3187 11.0682 94.152 10.7614C93.9853 10.4508 93.7524 10.2064 93.4531 10.0284C93.1577 9.85038 92.813 9.76136 92.419 9.76136C91.9986 9.76136 91.6293 9.86364 91.3111 10.0682C90.9929 10.2689 90.7448 10.5341 90.5668 10.8636C90.3925 11.1894 90.3035 11.5473 90.2997 11.9375V13.1477C90.2997 13.6553 90.3925 14.0909 90.5781 14.4545C90.7637 14.8144 91.0232 15.0909 91.3565 15.2841C91.6899 15.4735 92.08 15.5682 92.527 15.5682C92.8262 15.5682 93.0971 15.5265 93.3395 15.4432C93.5819 15.3561 93.7921 15.2292 93.9702 15.0625C94.1482 14.8958 94.2827 14.6894 94.3736 14.4432L96.294 14.6591C96.1728 15.1667 95.9418 15.6098 95.6009 15.9886C95.2637 16.3636 94.8319 16.6553 94.3054 16.8636C93.7789 17.0682 93.1766 17.1705 92.4986 17.1705ZM112.139 9.28977H110.014C109.954 8.94129 109.842 8.63258 109.679 8.36364C109.516 8.09091 109.313 7.85985 109.071 7.67045C108.829 7.48106 108.552 7.33901 108.241 7.24432C107.935 7.14583 107.603 7.09659 107.247 7.09659C106.615 7.09659 106.054 7.25568 105.565 7.57386C105.077 7.88826 104.694 8.35038 104.418 8.96023C104.141 9.56629 104.003 10.3068 104.003 11.1818C104.003 12.072 104.141 12.822 104.418 13.4318C104.698 14.0379 105.08 14.4962 105.565 14.8068C106.054 15.1136 106.613 15.267 107.241 15.267C107.59 15.267 107.916 15.2216 108.219 15.1307C108.526 15.036 108.8 14.8977 109.043 14.7159C109.289 14.5341 109.495 14.3106 109.662 14.0455C109.832 13.7803 109.95 13.4773 110.014 13.1364L112.139 13.1477C112.06 13.7008 111.887 14.2197 111.622 14.7045C111.361 15.1894 111.018 15.6174 110.594 15.9886C110.17 16.3561 109.673 16.6439 109.105 16.8523C108.537 17.0568 107.906 17.1591 107.213 17.1591C106.19 17.1591 105.277 16.9223 104.474 16.4489C103.671 15.9754 103.039 15.2917 102.577 14.3977C102.115 13.5038 101.884 12.4318 101.884 11.1818C101.884 9.92803 102.116 8.85606 102.582 7.96591C103.048 7.07197 103.683 6.38826 104.486 5.91477C105.289 5.44129 106.198 5.20455 107.213 5.20455C107.861 5.20455 108.463 5.29545 109.02 5.47727C109.577 5.65909 110.073 5.92614 110.509 6.27841C110.944 6.62689 111.302 7.05492 111.582 7.5625C111.866 8.06629 112.052 8.64205 112.139 9.28977ZM116.036 11.8864V17H113.979V5.36364H115.99V9.75568H116.092C116.297 9.26326 116.613 8.875 117.041 8.59091C117.473 8.30303 118.022 8.15909 118.689 8.15909C119.295 8.15909 119.823 8.28598 120.274 8.53977C120.725 8.79356 121.073 9.16477 121.32 9.65341C121.57 10.142 121.695 10.7386 121.695 11.4432V17H119.638V11.7614C119.638 11.1742 119.486 10.7178 119.183 10.392C118.884 10.0625 118.464 9.89773 117.922 9.89773C117.558 9.89773 117.232 9.97727 116.945 10.1364C116.661 10.2917 116.437 10.517 116.274 10.8125C116.115 11.108 116.036 11.4659 116.036 11.8864ZM126.303 17.1761C125.75 17.1761 125.251 17.0777 124.808 16.8807C124.369 16.6799 124.02 16.3845 123.763 15.9943C123.509 15.6042 123.382 15.1231 123.382 14.5511C123.382 14.0587 123.473 13.6515 123.655 13.3295C123.837 13.0076 124.085 12.75 124.399 12.5568C124.714 12.3636 125.068 12.2178 125.462 12.1193C125.859 12.017 126.27 11.9432 126.695 11.8977C127.206 11.8447 127.621 11.7973 127.939 11.7557C128.257 11.7102 128.488 11.642 128.632 11.5511C128.78 11.4564 128.854 11.3106 128.854 11.1136V11.0795C128.854 10.6515 128.727 10.3201 128.473 10.0852C128.219 9.85038 127.854 9.73295 127.376 9.73295C126.873 9.73295 126.473 9.8428 126.178 10.0625C125.886 10.2822 125.689 10.5417 125.587 10.8409L123.666 10.5682C123.818 10.0379 124.068 9.5947 124.416 9.23864C124.765 8.87879 125.191 8.60985 125.695 8.43182C126.198 8.25 126.755 8.15909 127.365 8.15909C127.786 8.15909 128.204 8.20833 128.621 8.30682C129.037 8.4053 129.418 8.56818 129.763 8.79545C130.107 9.01894 130.384 9.32386 130.592 9.71023C130.804 10.0966 130.911 10.5795 130.911 11.1591V17H128.933V15.8011H128.865C128.74 16.0436 128.564 16.2708 128.337 16.483C128.113 16.6913 127.831 16.8598 127.49 16.9886C127.153 17.1136 126.757 17.1761 126.303 17.1761ZM126.837 15.6648C127.25 15.6648 127.607 15.5833 127.911 15.4205C128.214 15.2538 128.446 15.0341 128.609 14.7614C128.776 14.4886 128.859 14.1913 128.859 13.8693V12.8409C128.795 12.8939 128.685 12.9432 128.53 12.9886C128.378 13.0341 128.208 13.0739 128.018 13.108C127.829 13.142 127.642 13.1723 127.456 13.1989C127.27 13.2254 127.109 13.2481 126.973 13.267C126.666 13.3087 126.392 13.3769 126.149 13.4716C125.907 13.5663 125.715 13.6989 125.575 13.8693C125.435 14.036 125.365 14.2519 125.365 14.517C125.365 14.8958 125.503 15.1818 125.78 15.375C126.056 15.5682 126.409 15.6648 126.837 15.6648ZM132.979 17V8.27273H134.973V9.72727H135.064C135.223 9.22348 135.496 8.83523 135.882 8.5625C136.272 8.28598 136.717 8.14773 137.217 8.14773C137.331 8.14773 137.458 8.15341 137.598 8.16477C137.742 8.17235 137.861 8.18561 137.956 8.20455V10.0966C137.869 10.0663 137.731 10.0398 137.541 10.017C137.356 9.99053 137.176 9.97727 137.001 9.97727C136.626 9.97727 136.289 10.0587 135.99 10.2216C135.695 10.3807 135.462 10.6023 135.291 10.8864C135.121 11.1705 135.036 11.4981 135.036 11.8693V17H132.979ZM144.149 8.27273V9.86364H139.132V8.27273H144.149ZM140.371 6.18182H142.428V14.375C142.428 14.6515 142.469 14.8636 142.553 15.0114C142.64 15.1553 142.753 15.2538 142.893 15.3068C143.034 15.3598 143.189 15.3864 143.359 15.3864C143.488 15.3864 143.606 15.3769 143.712 15.358C143.821 15.339 143.905 15.322 143.962 15.3068L144.308 16.9148C144.198 16.9527 144.041 16.9943 143.837 17.0398C143.636 17.0852 143.39 17.1117 143.098 17.1193C142.583 17.1345 142.119 17.0568 141.706 16.8864C141.293 16.7121 140.965 16.4432 140.723 16.0795C140.484 15.7159 140.367 15.2614 140.371 14.7159V6.18182ZM150.349 11.1818C150.349 9.76136 150.537 8.45644 150.912 7.26705C151.291 6.07386 151.853 4.97159 152.599 3.96023H154.537C154.249 4.33523 153.98 4.79545 153.73 5.34091C153.48 5.88258 153.262 6.47727 153.077 7.125C152.895 7.76894 152.751 8.4375 152.645 9.13068C152.543 9.82386 152.491 10.5076 152.491 11.1818C152.491 12.0795 152.58 12.9886 152.759 13.9091C152.94 14.8295 153.185 15.6837 153.491 16.4716C153.802 17.2557 154.151 17.8977 154.537 18.3977H152.599C151.853 17.3864 151.291 16.286 150.912 15.0966C150.537 13.9034 150.349 12.5985 150.349 11.1818ZM163.561 5.36364H165.669V12.9659C165.669 13.7992 165.472 14.5322 165.078 15.1648C164.688 15.7973 164.139 16.2917 163.43 16.6477C162.722 17 161.894 17.1761 160.947 17.1761C159.997 17.1761 159.167 17 158.459 16.6477C157.75 16.2917 157.201 15.7973 156.811 15.1648C156.421 14.5322 156.226 13.7992 156.226 12.9659V5.36364H158.334V12.7898C158.334 13.2746 158.44 13.7064 158.652 14.0852C158.868 14.464 159.171 14.7614 159.561 14.9773C159.951 15.1894 160.413 15.2955 160.947 15.2955C161.482 15.2955 161.944 15.1894 162.334 14.9773C162.728 14.7614 163.031 14.464 163.243 14.0852C163.455 13.7064 163.561 13.2746 163.561 12.7898V5.36364ZM174.284 8.5625C174.231 8.06629 174.008 7.67992 173.614 7.40341C173.223 7.12689 172.716 6.98864 172.091 6.98864C171.652 6.98864 171.275 7.05492 170.96 7.1875C170.646 7.32008 170.405 7.5 170.239 7.72727C170.072 7.95455 169.987 8.21402 169.983 8.50568C169.983 8.74811 170.038 8.95833 170.148 9.13636C170.261 9.31439 170.415 9.46591 170.608 9.59091C170.801 9.71212 171.015 9.81439 171.25 9.89773C171.485 9.98106 171.722 10.0511 171.96 10.108L173.051 10.3807C173.491 10.483 173.913 10.6212 174.318 10.7955C174.727 10.9697 175.093 11.1894 175.415 11.4545C175.741 11.7197 175.998 12.0398 176.188 12.4148C176.377 12.7898 176.472 13.2292 176.472 13.733C176.472 14.4148 176.297 15.0152 175.949 15.5341C175.6 16.0492 175.097 16.4527 174.438 16.7443C173.782 17.0322 172.989 17.1761 172.057 17.1761C171.152 17.1761 170.366 17.036 169.699 16.7557C169.036 16.4754 168.517 16.0663 168.142 15.5284C167.771 14.9905 167.57 14.3352 167.54 13.5625H169.614C169.644 13.9678 169.769 14.3049 169.989 14.5739C170.208 14.8428 170.494 15.0436 170.847 15.1761C171.203 15.3087 171.6 15.375 172.04 15.375C172.498 15.375 172.9 15.3068 173.244 15.1705C173.593 15.0303 173.866 14.8371 174.062 14.5909C174.259 14.3409 174.36 14.0492 174.364 13.7159C174.36 13.4129 174.271 13.1629 174.097 12.9659C173.922 12.7652 173.678 12.5985 173.364 12.4659C173.053 12.3295 172.689 12.2083 172.273 12.1023L170.949 11.7614C169.991 11.5152 169.233 11.142 168.676 10.642C168.123 10.1383 167.847 9.4697 167.847 8.63636C167.847 7.95076 168.032 7.35038 168.403 6.83523C168.778 6.32008 169.288 5.92045 169.932 5.63636C170.576 5.34848 171.305 5.20455 172.119 5.20455C172.945 5.20455 173.669 5.34848 174.29 5.63636C174.915 5.92045 175.405 6.31629 175.761 6.82386C176.117 7.32765 176.301 7.9072 176.312 8.5625H174.284ZM182.294 17H178.351V5.36364H182.374C183.529 5.36364 184.521 5.59659 185.351 6.0625C186.184 6.52462 186.824 7.18939 187.271 8.05682C187.718 8.92424 187.942 9.96212 187.942 11.1705C187.942 12.3826 187.716 13.4242 187.266 14.2955C186.819 15.1667 186.173 15.8352 185.328 16.3011C184.487 16.767 183.476 17 182.294 17ZM180.459 15.1761H182.192C183.002 15.1761 183.679 15.0284 184.22 14.733C184.762 14.4337 185.169 13.9886 185.442 13.3977C185.714 12.803 185.851 12.0606 185.851 11.1705C185.851 10.2803 185.714 9.54167 185.442 8.95455C185.169 8.36364 184.766 7.92235 184.232 7.63068C183.701 7.33523 183.042 7.1875 182.254 7.1875H180.459V15.1761ZM193.524 11.1818C193.524 12.5985 193.335 13.9034 192.956 15.0966C192.581 16.286 192.02 17.3864 191.274 18.3977H189.337C189.628 18.0227 189.897 17.5644 190.143 17.0227C190.393 16.4811 190.609 15.8864 190.791 15.2386C190.977 14.5909 191.121 13.9205 191.223 13.2273C191.329 12.5341 191.382 11.8523 191.382 11.1818C191.382 10.2841 191.291 9.375 191.109 8.45455C190.931 7.53409 190.687 6.67992 190.376 5.89205C190.07 5.10417 189.723 4.46023 189.337 3.96023H191.274C192.02 4.97159 192.581 6.07386 192.956 7.26705C193.335 8.45644 193.524 9.76136 193.524 11.1818Z" fill="#0B1426"/>
<path d="M534.153 4.54545V14H532.722V5.97656H532.666L530.404 7.45384V6.08736L532.763 4.54545H534.153ZM536.839 14V4.54545H538.266V8.65412H542.979V4.54545H544.411V14H542.979V9.87749H538.266V14H536.839Z" fill="#5D667B"/>
<path d="M567.191 14V12.9659L570.39 9.65128C570.732 9.29119 571.013 8.97573 571.235 8.7049C571.459 8.43099 571.627 8.17093 571.738 7.92472C571.849 7.6785 571.904 7.4169 571.904 7.13991C571.904 6.82599 571.83 6.55516 571.683 6.32741C571.535 6.09659 571.333 5.91963 571.078 5.79652C570.822 5.67034 570.535 5.60724 570.214 5.60724C569.876 5.60724 569.58 5.67649 569.328 5.81499C569.076 5.95348 568.882 6.14891 568.746 6.40128C568.611 6.65365 568.543 6.9491 568.543 7.28764H567.181C567.181 6.71212 567.314 6.20893 567.578 5.77805C567.843 5.34718 568.206 5.01326 568.668 4.77628C569.13 4.53622 569.654 4.41619 570.242 4.41619C570.836 4.41619 571.359 4.53468 571.812 4.77166C572.267 5.00556 572.623 5.32564 572.878 5.73189C573.134 6.13506 573.261 6.59055 573.261 7.09837C573.261 7.44922 573.195 7.79238 573.063 8.12784C572.934 8.4633 572.707 8.83724 572.384 9.24964C572.061 9.65897 571.612 10.156 571.036 10.7408L569.157 12.7074V12.7766H573.414V14H567.191ZM574.762 12.1534V10.9993L578.847 4.54545H579.757V6.24432H579.18L576.257 10.87V10.9439H581.857V12.1534H574.762ZM579.244 14V11.8026L579.254 11.2763V4.54545H580.606V14H579.244ZM583.595 14V4.54545H585.022V8.65412H589.735V4.54545H591.166V14H589.735V9.87749H585.022V14H583.595Z" fill="#5D667B"/>
<rect x="601" width="35" height="20" rx="10" fill="#E2ECFE"/>
<path d="M611.228 15L615.355 6.83807V6.76882H610.582V5.54545H616.832V6.81037L612.719 15H611.228ZM621.628 15H618.567V5.54545H621.725C622.651 5.54545 623.447 5.73473 624.111 6.11328C624.776 6.48875 625.286 7.02888 625.639 7.73366C625.996 8.43537 626.175 9.27711 626.175 10.2589C626.175 11.2437 625.995 12.0901 625.635 12.7979C625.278 13.5058 624.761 14.0505 624.084 14.4322C623.407 14.8107 622.588 15 621.628 15ZM619.994 13.7536H621.549C622.269 13.7536 622.868 13.6181 623.345 13.3473C623.822 13.0734 624.179 12.6779 624.416 12.1609C624.653 11.6407 624.772 11.0067 624.772 10.2589C624.772 9.51716 624.653 8.88778 624.416 8.37074C624.182 7.85369 623.833 7.46129 623.368 7.19354C622.903 6.92578 622.326 6.7919 621.637 6.7919H619.994V13.7536Z" fill="#0141CF"/>
<path d="M650.916 5.27273V14H649.595V6.59375H649.544L647.456 7.95739V6.69602L649.634 5.27273H650.916ZM653.396 5.27273H654.994L657.773 12.0568H657.875L660.653 5.27273H662.251V14H660.999V7.68466H660.918L658.344 13.9872H657.304L654.73 7.6804H654.649V14H653.396V5.27273Z" fill="#5D667B"/>
<path d="M688.706 14.1193C688.121 14.1193 687.598 14.0185 687.138 13.8168C686.68 13.6151 686.318 13.3352 686.051 12.9773C685.787 12.6165 685.645 12.1989 685.625 11.7244H686.963C686.98 11.983 687.067 12.2074 687.223 12.3977C687.382 12.5852 687.589 12.7301 687.845 12.8324C688.101 12.9347 688.385 12.9858 688.697 12.9858C689.041 12.9858 689.345 12.9261 689.609 12.8068C689.876 12.6875 690.085 12.5213 690.236 12.3082C690.386 12.0923 690.462 11.8438 690.462 11.5625C690.462 11.2699 690.386 11.0128 690.236 10.7912C690.088 10.5668 689.871 10.3906 689.584 10.2628C689.3 10.1349 688.956 10.071 688.553 10.071H687.815V8.99716H688.553C688.876 8.99716 689.161 8.93892 689.405 8.82244C689.652 8.70597 689.845 8.54403 689.984 8.33665C690.124 8.12642 690.193 7.88068 690.193 7.59943C690.193 7.32955 690.132 7.09517 690.01 6.89631C689.891 6.6946 689.72 6.53693 689.499 6.4233C689.28 6.30966 689.021 6.25284 688.723 6.25284C688.439 6.25284 688.173 6.3054 687.926 6.41051C687.682 6.51278 687.483 6.66051 687.33 6.85369C687.176 7.04403 687.094 7.27273 687.082 7.53977H685.808C685.822 7.06818 685.962 6.65341 686.226 6.29545C686.493 5.9375 686.845 5.65767 687.283 5.45597C687.72 5.25426 688.206 5.15341 688.74 5.15341C689.3 5.15341 689.783 5.26278 690.189 5.48153C690.598 5.69744 690.913 5.9858 691.135 6.34659C691.359 6.70739 691.47 7.10227 691.467 7.53125C691.47 8.01989 691.334 8.43466 691.058 8.77557C690.786 9.11648 690.422 9.34517 689.967 9.46165V9.52983C690.547 9.6179 690.996 9.84801 691.314 10.2202C691.635 10.5923 691.794 11.054 691.791 11.6051C691.794 12.0852 691.661 12.5156 691.391 12.8963C691.124 13.277 690.759 13.5767 690.295 13.7955C689.832 14.0114 689.303 14.1193 688.706 14.1193ZM693.521 5.27273H695.119L697.898 12.0568H698L700.778 5.27273H702.376V14H701.124V7.68466H701.043L698.469 13.9872H697.429L694.855 7.6804H694.774V14H693.521V5.27273Z" fill="#5D667B"/>
<path d="M726.777 14.1193C726.388 14.1136 726.004 14.0426 725.626 13.9062C725.251 13.7699 724.911 13.5426 724.604 13.2244C724.297 12.9062 724.051 12.4787 723.866 11.9418C723.685 11.4048 723.594 10.7344 723.594 9.9304C723.594 9.16903 723.669 8.4929 723.82 7.90199C723.973 7.31108 724.193 6.8125 724.48 6.40625C724.767 5.99716 725.114 5.68608 725.52 5.47301C725.926 5.25994 726.382 5.15341 726.888 5.15341C727.408 5.15341 727.869 5.25568 728.273 5.46023C728.676 5.66477 729.003 5.94744 729.253 6.30824C729.506 6.66903 729.666 7.07955 729.734 7.53977H728.435C728.347 7.17614 728.172 6.87926 727.911 6.64915C727.649 6.41903 727.308 6.30398 726.888 6.30398C726.249 6.30398 725.75 6.58239 725.392 7.1392C725.037 7.69602 724.858 8.47017 724.855 9.46165H724.919C725.07 9.21449 725.254 9.00426 725.473 8.83097C725.695 8.65483 725.942 8.51989 726.214 8.42614C726.49 8.32955 726.78 8.28125 727.084 8.28125C727.589 8.28125 728.047 8.40483 728.456 8.65199C728.868 8.89631 729.196 9.23437 729.44 9.66619C729.685 10.098 729.807 10.5923 729.807 11.1491C729.807 11.706 729.68 12.2102 729.428 12.6619C729.178 13.1136 728.825 13.4716 728.371 13.7358C727.916 13.9972 727.385 14.125 726.777 14.1193ZM726.773 13.0114C727.108 13.0114 727.408 12.929 727.672 12.7642C727.936 12.5994 728.145 12.3778 728.298 12.0994C728.452 11.821 728.528 11.5099 728.528 11.1662C728.528 10.831 728.453 10.5256 728.303 10.25C728.155 9.97443 727.95 9.75568 727.689 9.59375C727.43 9.43182 727.135 9.35085 726.803 9.35085C726.55 9.35085 726.315 9.39915 726.099 9.49574C725.886 9.59233 725.699 9.72585 725.537 9.89631C725.375 10.0668 725.247 10.2628 725.153 10.4844C725.062 10.7031 725.017 10.9347 725.017 11.179C725.017 11.5057 725.092 11.8082 725.243 12.0866C725.396 12.3651 725.605 12.5895 725.869 12.7599C726.136 12.9276 726.438 13.0114 726.773 13.0114ZM731.478 5.27273H733.076L735.855 12.0568H735.957L738.735 5.27273H740.333V14H739.081V7.68466H739L736.426 13.9872H735.386L732.812 7.6804H732.731V14H731.478V5.27273Z" fill="#5D667B"/>
<path d="M765.45 4.54545V14H764.018V5.97656H763.963L761.701 7.45384V6.08736L764.06 4.54545H765.45ZM767.407 4.54545H769.027L771.497 8.84339H771.599L774.069 4.54545H775.689L772.259 10.2884V14H770.837V10.2884L767.407 4.54545Z" fill="#5D667B"/>
<path d="M798.697 14H797.183L800.585 4.54545H802.233L805.635 14H804.121L801.448 6.26278H801.374L798.697 14ZM798.951 10.2976H803.863V11.4979H798.951V10.2976ZM807.001 14V4.54545H808.427V12.772H812.711V14H807.001ZM814.339 14V4.54545H815.765V12.772H820.049V14H814.339Z" fill="#5D667B"/>
<g clip-path="url(#clip0_1_537)">
<path d="M39.8203 426.609H819.949" stroke="#EAEEF4"/>
<path d="M39.8203 367.609H819.949" stroke="#EAEEF4"/>
<path d="M39.8203 308.609H819.949" stroke="#EAEEF4"/>
<path d="M39.8203 249.609H819.949" stroke="#EAEEF4"/>
<path d="M39.8203 189.609H819.949" stroke="#EAEEF4"/>
<path d="M39.8203 130.609H819.949" stroke="#EAEEF4"/>
<path d="M39.8203 70.6094H819.949" stroke="#EAEEF4"/>
<path d="M50.2285 426.109V436.109" stroke="#CCD6EB"/>
<path d="M164 426.109V436.109" stroke="#CCD6EB"/>
<path d="M278 426.109V436.109" stroke="#CCD6EB"/>
<path d="M392 426.109V436.109" stroke="#CCD6EB"/>
<path d="M506 426.109V436.109" stroke="#CCD6EB"/>
<path d="M620 426.109V436.109" stroke="#CCD6EB"/>
<path d="M734 426.109V436.109" stroke="#CCD6EB"/>
<path d="M39.8203 426.609H819.949" stroke="#CCD6EB"/>
<path d="M39.8203 383.878L42.5385 387.458L45.2568 360.163L47.975 351.343L50.6932 361.451L53.4114 373.068L56.1296 362.393L58.8478 345.06L61.5661 362.351L64.2843 392.017L67.0025 373.614L69.7207 360.856L72.4389 348.87L75.1572 348.459L77.8754 354.389L80.5936 325.371L83.3118 310.5L86.03 310.272L88.7483 316.819L91.4665 335.158L94.1847 329.324L96.9029 347.262L99.6211 339.525L102.339 340.767L105.058 348.706L107.776 355.308L110.494 343.168L113.212 327.08L115.93 333.609L118.649 334.58L121.367 336.567L124.085 348.706L126.803 366.273L129.522 368.653L132.24 353.66L134.958 356.135L137.676 340.781L140.394 323.788L143.113 311.128L145.831 302.334L148.549 305.734L151.267 309.741L153.986 309.625L156.704 294.362L159.422 305.57L162.14 313.223L164.858 304.487L167.577 299.476L170.295 293.477L173.013 303.116L175.731 314.318L178.449 328.115L181.168 321.4L183.886 323.107L186.604 328.408L189.322 327.097L192.041 341.371L194.759 331.156L197.477 331.096L200.195 336.401L202.913 344.032L205.632 348.316L208.35 337.794L211.068 342.142L213.786 355.969L216.505 365.894L219.223 349.61L221.941 336.063L224.659 318.726L227.377 306.004L230.096 308.239L232.814 317.844L235.532 321.147L238.25 310.208L240.969 308.681L243.687 316.784L246.405 315.526L249.123 307.103L251.841 303.534L254.56 301.737L257.278 300.005L259.996 283.267L262.714 319.388L265.432 337.429L268.151 325.458L270.869 304.446L273.587 309.961L276.305 309.426L279.024 320.319L281.742 324.091L284.46 335.061L287.178 328.536L289.896 313.637L292.615 318.985L295.333 330.931L298.051 348.762L300.769 326.158L303.488 322.749L306.206 331.027L308.924 337.862L311.642 349.049L314.36 347.03L317.079 343.189L319.797 350.373L322.515 346.569L325.233 353.651L327.952 349.709L330.67 333.419L333.388 306.387L336.106 345.156L338.824 400.417L346.979 190.131L352.415 172.575L355.134 152.767L357.852 127.92L360.57 126.463L363.288 108.321L366.007 107.241L368.725 145.739L371.443 178.993L374.161 167.937L376.879 190.714L379.598 194.064L382.316 227.704L385.034 237.94L387.752 294.451L390.471 295.037L393.189 324.522L395.907 321.291L398.625 333.27L401.343 314.734L404.062 302.468L406.78 289.249L409.498 283.685L412.216 289.452L414.935 296.602L417.653 316.853L420.371 338.099L423.089 310.177L425.807 312.889L428.526 328L431.244 332.692L433.962 320.882L436.68 330.683L439.398 327.78L442.117 318.53L444.835 312.466L447.553 328.601L450.271 328.57L452.99 333.124L455.708 346.986L458.426 325.583L461.144 306.894L463.862 285.192L466.581 294.525L469.299 292.464L472.017 291.273L474.735 294.82L477.454 277.255L480.172 265.802L482.89 259.154L485.608 263.843L488.326 256.211L491.045 249.196L493.763 230.329L496.481 236.469L499.199 230.4L501.918 239.24L504.636 241.517L507.354 228.943L510.072 237.206L512.79 237.047L515.509 235.543L518.227 217.782L520.945 211.691L523.663 196.463L526.382 215.335L529.1 218.602L531.818 230.422L534.536 224.68L537.254 261.488L539.973 265.18L542.691 260.906L545.409 268.23L548.127 287.338L550.845 267.127L553.564 274.073L556.282 273.137L559 269.727L561.718 256.71L564.437 248.548L567.155 239.787L569.873 243.102L572.591 244.197L575.309 255.054L578.028 256.818L580.746 218.577L583.464 229.441L586.182 255.67L588.901 243.252L591.619 232.037L594.337 213.101L597.055 246.392L599.773 219.006L602.492 230.27L605.21 235.788L607.928 221.27L610.646 207.564L613.365 224.758L616.083 215.382L618.801 226.095L621.519 205.732L624.237 205.437L626.956 221.876L629.674 226.33L632.392 226.856L635.11 215.98L637.828 217.727L640.547 218.744L643.265 199.49L645.983 250.235L648.701 254.008L651.42 252.517L654.138 215.94L656.856 224.416L659.574 243.586L662.292 260.796L665.011 273.452L667.729 297.114L670.447 286.344L673.165 281.65L675.884 270.734L678.602 268.035L681.32 263.156L684.038 285.221L686.756 282.939L689.475 284.817L692.193 277.801L694.911 279.838L697.629 281.024L700.347 269.273L703.066 258.082L705.784 263.299L708.502 260.826L711.22 231.091L713.939 260.786L716.657 282.083L719.375 261.193L722.093 277.807L724.811 270.77L727.53 269.273L730.248 284.889L732.966 285.677L735.684 267.509L738.403 285.297L741.121 310.896L743.839 312.243L746.557 310.321L749.275 305.63L751.994 317.675L754.712 314.207L757.43 298.522L760.148 300.205L762.867 292.809L765.585 296.88L768.303 294.26L771.021 305.93L773.739 312.726L776.458 322.942L779.176 312.223L781.894 336.37L784.612 313.761L787.331 306.436L790.049 328.669L792.767 335.341L795.485 324.642L798.203 326.173L800.922 347.041L803.64 338.735L806.358 334.209L809.076 329.49L811.794 335.381L814.513 324.21L817.231 317.127L819.949 308.979V426.11H817.231H814.513H811.794H809.076H806.358H803.64H800.922H798.203H795.485H792.767H790.049H787.331H784.612H781.894H779.176H776.458H773.739H771.021H768.303H765.585H762.867H760.148H757.43H754.712H751.994H749.275H746.557H743.839H741.121H738.403H735.684H732.966H730.248H727.53H724.811H722.093H719.375H716.657H713.939H711.22H708.502H705.784H703.066H700.347H697.629H694.911H692.193H689.475H686.756H684.038H681.32H678.602H675.884H673.165H670.447H667.729H665.011H662.292H659.574H656.856H654.138H651.42H648.701H645.983H643.265H640.547H637.828H635.11H632.392H629.674H626.956H624.237H621.519H618.801H616.083H613.365H610.646H607.928H605.21H602.492H599.773H597.055H594.337H591.619H588.901H586.182H583.464H580.746H578.028H575.309H572.591H569.873H567.155H564.437H561.718H559H556.282H553.564H550.845H548.127H545.409H542.691H539.973H537.254H534.536H531.818H529.1H526.382H523.663H520.945H518.227H515.509H512.79H510.072H507.354H504.636H501.918H499.199H496.481H493.763H491.045H488.326H485.608H482.89H480.172H477.454H474.735H472.017H469.299H466.581H463.862H461.144H458.426H455.708H452.99H450.271H447.553H444.835H442.117H439.398H436.68H433.962H431.244H428.526H425.807H423.089H420.371H417.653H414.935H412.216H409.498H406.78H404.062H401.343H398.625H395.907H393.189H390.471H387.752H385.034H382.316H379.598H376.879H374.161H371.443H368.725H366.007H363.288H360.57H357.852H355.134H352.415H349.697H346.979H344.261H341.543H338.824H336.106H333.388H330.67H327.952H325.233H322.515H319.797H317.079H314.36H311.642H308.924H306.206H303.488H300.769H298.051H295.333H292.615H289.896H287.178H284.46H281.742H279.024H276.305H273.587H270.869H268.151H265.432H262.714H259.996H257.278H254.56H251.841H249.123H246.405H243.687H240.969H238.25H235.532H232.814H230.096H227.377H224.659H221.941H219.223H216.505H213.786H211.068H208.35H205.632H202.913H200.195H197.477H194.759H192.041H189.322H186.604H183.886H181.168H178.449H175.731H173.013H170.295H167.577H164.858H162.14H159.422H156.704H153.986H151.267H148.549H145.831H143.113H140.394H137.676H134.958H132.24H129.522H126.803H124.085H121.367H118.649H115.93H113.212H110.494H107.776H105.058H102.339H99.6211H96.9029H94.1847H91.4665H88.7483H86.03H83.3118H80.5936H77.8754H75.1572H72.4389H69.7207H67.0025H64.2843H61.5661H58.8478H56.1296H53.4114H50.6932H47.975H45.2568H42.5385H39.8203V383.878Z" fill="url(#paint0_linear_1_537)"/>
<path d="M39.8203 383.878L42.5385 387.458L45.2568 360.163L47.975 351.343L50.6932 361.451L53.4114 373.068L56.1296 362.393L58.8478 345.06L61.5661 362.351L64.2843 392.017L67.0025 373.614L69.7207 360.856L72.4389 348.87L75.1572 348.459L77.8754 354.389L80.5936 325.371L83.3118 310.5L86.03 310.272L88.7483 316.819L91.4665 335.158L94.1847 329.324L96.9029 347.262L99.6211 339.525L102.339 340.767L105.058 348.706L107.776 355.308L110.494 343.168L113.212 327.08L115.93 333.609L118.649 334.58L121.367 336.567L124.085 348.706L126.803 366.273L129.522 368.653L132.24 353.66L134.958 356.135L137.676 340.781L140.394 323.788L143.113 311.128L145.831 302.334L148.549 305.734L151.267 309.741L153.986 309.625L156.704 294.362L159.422 305.57L162.14 313.223L164.858 304.487L167.577 299.476L170.295 293.477L173.013 303.116L175.731 314.318L178.449 328.115L181.168 321.4L183.886 323.107L186.604 328.408L189.322 327.097L192.041 341.371L194.759 331.156L197.477 331.096L200.195 336.401L202.913 344.032L205.632 348.316L208.35 337.794L211.068 342.142L213.786 355.969L216.505 365.894L219.223 349.61L221.941 336.063L224.659 318.726L227.377 306.004L230.096 308.239L232.814 317.844L235.532 321.147L238.25 310.208L240.969 308.681L243.687 316.784L246.405 315.526L249.123 307.103L251.841 303.534L254.56 301.737L257.278 300.005L259.996 283.267L262.714 319.388L265.432 337.429L268.151 325.458L270.869 304.446L273.587 309.961L276.305 309.426L279.024 320.319L281.742 324.091L284.46 335.061L287.178 328.536L289.896 313.637L292.615 318.985L295.333 330.931L298.051 348.762L300.769 326.158L303.488 322.749L306.206 331.027L308.924 337.862L311.642 349.049L314.36 347.03L317.079 343.189L319.797 350.373L322.515 346.569L325.233 353.651L327.952 349.709L330.67 333.419L333.388 306.387L336.106 345.156L338.824 381.5L346.979 190.131L352.415 172.575L355.134 152.767L357.852 127.92L360.57 126.463L363.288 108.321L366.007 107.241L368.725 145.739L371.443 178.993L374.161 167.937L376.879 190.714L379.598 194.064L382.316 227.704L385.034 237.94L387.752 294.451L390.471 295.037L393.189 324.522L395.907 321.291L398.625 333.27L401.343 314.734L404.062 302.468L406.78 289.249L409.498 283.685L412.216 289.452L414.935 296.602L417.653 316.853L420.371 338.099L423.089 310.177L425.807 312.889L428.526 328L431.244 332.692L433.962 320.882L436.68 330.683L439.398 327.78L442.117 318.53L444.835 312.466L447.553 328.601L450.271 328.57L452.99 333.124L455.708 346.986L458.426 325.583L461.144 306.894L463.862 285.192L466.581 294.525L469.299 292.464L472.017 291.273L474.735 294.82L477.454 277.255L480.172 265.802L482.89 259.154L485.608 263.843L488.326 256.211L491.045 249.196L493.763 230.329L496.481 236.469L499.199 230.4L501.918 239.24L504.636 241.517L507.354 228.943L510.072 237.206L512.79 237.047L515.509 235.543L518.227 217.782L520.945 211.691L523.663 196.463L526.382 215.335L529.1 218.602L531.818 230.422L534.536 224.68L537.254 261.488L539.973 265.18L542.691 260.906L545.409 268.23L548.127 287.338L550.845 267.127L553.564 274.073L556.282 273.137L559 269.727L561.718 256.71L564.437 248.548L567.155 239.787L569.873 243.102L572.591 244.197L575.309 255.054L578.028 256.818L580.746 218.577L583.464 229.441L586.182 255.67L588.901 243.252L591.619 232.037L594.337 213.101L597.055 246.392L599.773 219.006L602.492 230.27L605.21 235.788L607.928 221.27L610.646 207.564L613.365 224.758L616.083 215.382L618.801 226.095L621.519 205.732L624.237 205.437L626.956 221.876L629.674 226.33L632.392 226.856L635.11 215.98L637.828 217.727L640.547 218.744L643.265 199.49L645.983 250.235L648.701 254.008L651.42 252.517L654.138 215.94L656.856 224.416L659.574 243.586L662.292 260.796L665.011 273.452L667.729 297.114L670.447 286.344L673.165 281.65L675.884 270.734L678.602 268.035L681.32 263.156L684.038 285.221L686.756 282.939L689.475 284.817L692.193 277.801L694.911 279.838L697.629 281.024L700.347 269.273L703.066 258.082L705.784 263.299L708.502 260.826L711.22 231.091L713.939 260.786L716.657 282.083L719.375 261.193L722.093 277.807L724.811 270.77L727.53 269.273L730.248 284.889L732.966 285.677L735.684 267.509L738.403 285.297L741.121 310.896L743.839 312.243L746.557 310.321L749.275 305.63L751.994 317.675L754.712 314.207L757.43 298.522L760.148 300.205L762.867 292.809L765.585 296.88L768.303 294.26L771.021 305.93L773.739 312.726L776.458 322.942L779.176 312.223L781.894 336.37L784.612 313.761L787.331 306.436L790.049 328.669L792.767 335.341L795.485 324.642L798.203 326.173L800.922 347.041L803.64 338.735L806.358 334.209L809.076 329.49L811.794 335.381L814.513 324.21L817.231 317.127L819.949 308.979" stroke="#0052FE" stroke-width="1.5" stroke-linecap="round" stroke-linejoin="round"/>
<path d="M36.9976 445.109V453.109H36.0288V446.125H35.9819L34.0288 447.422V446.437L36.0288 445.109H36.9976ZM41.9546 453.219C41.6265 453.214 41.2983 453.151 40.9702 453.031C40.6421 452.911 40.3426 452.71 40.0718 452.426C39.8009 452.139 39.5835 451.753 39.4194 451.266C39.2554 450.776 39.1733 450.161 39.1733 449.422C39.1733 448.714 39.2397 448.086 39.3726 447.539C39.5054 446.99 39.6981 446.527 39.9507 446.152C40.2033 445.775 40.508 445.488 40.8647 445.293C41.2241 445.098 41.6291 445 42.0796 445C42.5275 445 42.9259 445.09 43.2749 445.27C43.6265 445.447 43.9129 445.694 44.1343 446.012C44.3556 446.329 44.4989 446.695 44.564 447.109H43.6108C43.5223 446.75 43.3504 446.452 43.0952 446.215C42.84 445.978 42.5015 445.859 42.0796 445.859C41.4598 445.859 40.9715 446.129 40.6147 446.668C40.2606 447.207 40.0822 447.964 40.0796 448.937H40.1421C40.2879 448.716 40.4611 448.527 40.6616 448.371C40.8647 448.212 41.0887 448.09 41.3335 448.004C41.5783 447.918 41.8374 447.875 42.1108 447.875C42.5692 447.875 42.9884 447.99 43.3687 448.219C43.7489 448.445 44.0535 448.759 44.2827 449.16C44.5119 449.559 44.6265 450.016 44.6265 450.531C44.6265 451.026 44.5158 451.479 44.2944 451.891C44.0731 452.299 43.7619 452.625 43.3608 452.867C42.9624 453.107 42.4937 453.224 41.9546 453.219ZM41.9546 452.359C42.2827 452.359 42.577 452.277 42.8374 452.113C43.1004 451.949 43.3075 451.729 43.4585 451.453C43.6121 451.177 43.689 450.87 43.689 450.531C43.689 450.201 43.6147 449.9 43.4663 449.629C43.3205 449.355 43.1187 449.138 42.8608 448.977C42.6056 448.815 42.314 448.734 41.9858 448.734C41.7384 448.734 41.508 448.784 41.2944 448.883C41.0809 448.979 40.8934 449.112 40.7319 449.281C40.5731 449.451 40.4481 449.645 40.3569 449.863C40.2658 450.079 40.2202 450.307 40.2202 450.547C40.2202 450.865 40.2944 451.161 40.4429 451.437C40.5939 451.714 40.7996 451.936 41.0601 452.105C41.3231 452.275 41.6213 452.359 41.9546 452.359ZM51.8657 453.109H49.397V445.109H51.9751C52.7511 445.109 53.4152 445.27 53.9673 445.59C54.5194 445.908 54.9425 446.365 55.2368 446.961C55.5311 447.555 55.6782 448.266 55.6782 449.094C55.6782 449.927 55.5298 450.645 55.2329 451.246C54.936 451.845 54.5037 452.306 53.936 452.629C53.3683 452.949 52.6782 453.109 51.8657 453.109ZM50.3657 452.25H51.8032C52.4647 452.25 53.0129 452.122 53.4478 451.867C53.8826 451.612 54.2069 451.249 54.4204 450.777C54.634 450.306 54.7407 449.745 54.7407 449.094C54.7407 448.448 54.6353 447.892 54.4243 447.426C54.2134 446.957 53.8983 446.598 53.479 446.348C53.0597 446.095 52.5376 445.969 51.9126 445.969H50.3657V452.25ZM59.6938 453.234C59.1157 453.234 58.617 453.107 58.1978 452.852C57.7811 452.594 57.4595 452.234 57.2329 451.773C57.009 451.31 56.897 450.771 56.897 450.156C56.897 449.542 57.009 449 57.2329 448.531C57.4595 448.06 57.7746 447.693 58.1782 447.43C58.5845 447.164 59.0584 447.031 59.6001 447.031C59.9126 447.031 60.2212 447.083 60.5259 447.187C60.8306 447.292 61.1079 447.461 61.3579 447.695C61.6079 447.927 61.8071 448.234 61.9556 448.617C62.104 449 62.1782 449.471 62.1782 450.031V450.422H57.5532V449.625H61.2407C61.2407 449.286 61.173 448.984 61.0376 448.719C60.9048 448.453 60.7147 448.243 60.4673 448.09C60.2225 447.936 59.9334 447.859 59.6001 447.859C59.2329 447.859 58.9152 447.951 58.647 448.133C58.3813 448.312 58.1769 448.547 58.0337 448.836C57.8905 449.125 57.8188 449.435 57.8188 449.766V450.297C57.8188 450.75 57.897 451.134 58.0532 451.449C58.2121 451.762 58.4321 452 58.7134 452.164C58.9946 452.326 59.3215 452.406 59.6938 452.406C59.936 452.406 60.1548 452.372 60.3501 452.305C60.548 452.234 60.7186 452.13 60.8618 451.992C61.005 451.852 61.1157 451.677 61.1938 451.469L62.0845 451.719C61.9907 452.021 61.8332 452.286 61.6118 452.516C61.3905 452.742 61.117 452.919 60.7915 453.047C60.466 453.172 60.1001 453.234 59.6938 453.234ZM66.0181 453.234C65.4556 453.234 64.9712 453.102 64.5649 452.836C64.1587 452.57 63.8462 452.204 63.6274 451.738C63.4087 451.272 63.2993 450.74 63.2993 450.141C63.2993 449.531 63.4113 448.993 63.6353 448.527C63.8618 448.059 64.1769 447.693 64.5806 447.43C64.9868 447.164 65.4608 447.031 66.0024 447.031C66.4243 447.031 66.8045 447.109 67.1431 447.266C67.4816 447.422 67.759 447.641 67.9751 447.922C68.1912 448.203 68.3254 448.531 68.3774 448.906H67.4556C67.3853 448.633 67.229 448.391 66.9868 448.18C66.7472 447.966 66.4243 447.859 66.0181 447.859C65.6587 447.859 65.3436 447.953 65.0728 448.141C64.8045 448.326 64.5949 448.587 64.4438 448.926C64.2954 449.262 64.2212 449.656 64.2212 450.109C64.2212 450.573 64.2941 450.977 64.4399 451.32C64.5884 451.664 64.7967 451.931 65.0649 452.121C65.3358 452.311 65.6535 452.406 66.0181 452.406C66.2576 452.406 66.4751 452.365 66.6704 452.281C66.8657 452.198 67.0311 452.078 67.1665 451.922C67.3019 451.766 67.3983 451.578 67.4556 451.359H68.3774C68.3254 451.714 68.1965 452.033 67.9907 452.316C67.7876 452.598 67.5181 452.822 67.1821 452.988C66.8488 453.152 66.4608 453.234 66.0181 453.234Z" fill="#0B1426"/>
<path d="M148.788 445.109V453.109H147.819V446.125H147.772L145.819 447.422V446.437L147.819 445.109H148.788ZM151.338 453.109L154.917 446.031V445.969H150.792V445.109H155.917V446.016L152.354 453.109H151.338ZM163.076 453.109H160.607V445.109H163.185C163.961 445.109 164.625 445.27 165.177 445.59C165.729 445.908 166.153 446.365 166.447 446.961C166.741 447.555 166.888 448.266 166.888 449.094C166.888 449.927 166.74 450.645 166.443 451.246C166.146 451.845 165.714 452.306 165.146 452.629C164.578 452.949 163.888 453.109 163.076 453.109ZM161.576 452.25H163.013C163.675 452.25 164.223 452.122 164.658 451.867C165.093 451.612 165.417 451.249 165.63 450.777C165.844 450.306 165.951 449.745 165.951 449.094C165.951 448.448 165.845 447.892 165.634 447.426C165.423 446.957 165.108 446.598 164.689 446.348C164.27 446.095 163.748 445.969 163.123 445.969H161.576V452.25ZM170.904 453.234C170.326 453.234 169.827 453.107 169.408 452.852C168.991 452.594 168.669 452.234 168.443 451.773C168.219 451.31 168.107 450.771 168.107 450.156C168.107 449.542 168.219 449 168.443 448.531C168.669 448.06 168.985 447.693 169.388 447.43C169.794 447.164 170.268 447.031 170.81 447.031C171.123 447.031 171.431 447.083 171.736 447.187C172.041 447.292 172.318 447.461 172.568 447.695C172.818 447.927 173.017 448.234 173.166 448.617C173.314 449 173.388 449.471 173.388 450.031V450.422H168.763V449.625H172.451C172.451 449.286 172.383 448.984 172.248 448.719C172.115 448.453 171.925 448.243 171.677 448.09C171.432 447.936 171.143 447.859 170.81 447.859C170.443 447.859 170.125 447.951 169.857 448.133C169.591 448.312 169.387 448.547 169.244 448.836C169.1 449.125 169.029 449.435 169.029 449.766V450.297C169.029 450.75 169.107 451.134 169.263 451.449C169.422 451.762 169.642 452 169.923 452.164C170.205 452.326 170.531 452.406 170.904 452.406C171.146 452.406 171.365 452.372 171.56 452.305C171.758 452.234 171.929 452.13 172.072 451.992C172.215 451.852 172.326 451.677 172.404 451.469L173.294 451.719C173.201 452.021 173.043 452.286 172.822 452.516C172.6 452.742 172.327 452.919 172.001 453.047C171.676 453.172 171.31 453.234 170.904 453.234ZM177.228 453.234C176.666 453.234 176.181 453.102 175.775 452.836C175.369 452.57 175.056 452.204 174.837 451.738C174.619 451.272 174.509 450.74 174.509 450.141C174.509 449.531 174.621 448.993 174.845 448.527C175.072 448.059 175.387 447.693 175.791 447.43C176.197 447.164 176.671 447.031 177.212 447.031C177.634 447.031 178.014 447.109 178.353 447.266C178.692 447.422 178.969 447.641 179.185 447.922C179.401 448.203 179.535 448.531 179.587 448.906H178.666C178.595 448.633 178.439 448.391 178.197 448.18C177.957 447.966 177.634 447.859 177.228 447.859C176.869 447.859 176.554 447.953 176.283 448.141C176.014 448.326 175.805 448.587 175.654 448.926C175.505 449.262 175.431 449.656 175.431 450.109C175.431 450.573 175.504 450.977 175.65 451.32C175.798 451.664 176.007 451.931 176.275 452.121C176.546 452.311 176.863 452.406 177.228 452.406C177.468 452.406 177.685 452.365 177.88 452.281C178.076 452.198 178.241 452.078 178.376 451.922C178.512 451.766 178.608 451.578 178.666 451.359H179.587C179.535 451.714 179.406 452.033 179.201 452.316C178.998 452.598 178.728 452.822 178.392 452.988C178.059 453.152 177.671 453.234 177.228 453.234Z" fill="#0B1426"/>
<path d="M262.041 445.109V453.109H261.072V446.125H261.025L259.072 447.422V446.437L261.072 445.109H262.041ZM266.904 453.219C266.367 453.219 265.893 453.124 265.482 452.934C265.073 452.741 264.754 452.477 264.525 452.141C264.296 451.802 264.182 451.417 264.185 450.984C264.182 450.646 264.249 450.333 264.384 450.047C264.52 449.758 264.705 449.517 264.939 449.324C265.176 449.129 265.44 449.005 265.732 448.953V448.906C265.349 448.807 265.044 448.592 264.818 448.262C264.591 447.928 264.479 447.549 264.482 447.125C264.479 446.719 264.582 446.355 264.791 446.035C264.999 445.715 265.285 445.462 265.65 445.277C266.017 445.092 266.435 445 266.904 445C267.367 445 267.781 445.092 268.146 445.277C268.511 445.462 268.797 445.715 269.005 446.035C269.216 446.355 269.323 446.719 269.326 447.125C269.323 447.549 269.207 447.928 268.978 448.262C268.751 448.592 268.451 448.807 268.076 448.906V448.953C268.365 449.005 268.625 449.129 268.857 449.324C269.089 449.517 269.274 449.758 269.412 450.047C269.55 450.333 269.62 450.646 269.623 450.984C269.62 451.417 269.503 451.802 269.271 452.141C269.042 452.477 268.723 452.741 268.314 452.934C267.908 453.124 267.438 453.219 266.904 453.219ZM266.904 452.359C267.266 452.359 267.578 452.301 267.841 452.184C268.104 452.066 268.307 451.901 268.451 451.687C268.594 451.474 268.667 451.224 268.669 450.937C268.667 450.635 268.589 450.368 268.435 450.137C268.281 449.905 268.072 449.723 267.806 449.59C267.543 449.457 267.242 449.391 266.904 449.391C266.563 449.391 266.258 449.457 265.99 449.59C265.724 449.723 265.514 449.905 265.361 450.137C265.21 450.368 265.136 450.635 265.138 450.937C265.136 451.224 265.205 451.474 265.345 451.687C265.488 451.901 265.693 452.066 265.958 452.184C266.224 452.301 266.539 452.359 266.904 452.359ZM266.904 448.562C267.19 448.562 267.444 448.505 267.666 448.391C267.889 448.276 268.065 448.116 268.193 447.91C268.32 447.704 268.386 447.464 268.388 447.187C268.386 446.917 268.322 446.681 268.197 446.48C268.072 446.277 267.899 446.121 267.677 446.012C267.456 445.9 267.198 445.844 266.904 445.844C266.604 445.844 266.343 445.9 266.119 446.012C265.895 446.121 265.722 446.277 265.599 446.48C265.477 446.681 265.417 446.917 265.419 447.187C265.417 447.464 265.478 447.704 265.603 447.91C265.731 448.116 265.906 448.276 266.13 448.391C266.354 448.505 266.612 448.562 266.904 448.562ZM276.823 453.109H274.354V445.109H276.932C277.708 445.109 278.372 445.27 278.924 445.59C279.476 445.908 279.9 446.365 280.194 446.961C280.488 447.555 280.635 448.266 280.635 449.094C280.635 449.927 280.487 450.645 280.19 451.246C279.893 451.845 279.461 452.306 278.893 452.629C278.325 452.949 277.635 453.109 276.823 453.109ZM275.323 452.25H276.76C277.422 452.25 277.97 452.122 278.405 451.867C278.84 451.612 279.164 451.249 279.377 450.777C279.591 450.306 279.698 449.745 279.698 449.094C279.698 448.448 279.592 447.892 279.381 447.426C279.17 446.957 278.855 446.598 278.436 446.348C278.017 446.095 277.495 445.969 276.87 445.969H275.323V452.25ZM284.651 453.234C284.073 453.234 283.574 453.107 283.155 452.852C282.738 452.594 282.417 452.234 282.19 451.773C281.966 451.31 281.854 450.771 281.854 450.156C281.854 449.542 281.966 449 282.19 448.531C282.417 448.06 282.732 447.693 283.135 447.43C283.542 447.164 284.015 447.031 284.557 447.031C284.87 447.031 285.178 447.083 285.483 447.187C285.788 447.292 286.065 447.461 286.315 447.695C286.565 447.927 286.764 448.234 286.913 448.617C287.061 449 287.135 449.471 287.135 450.031V450.422H282.51V449.625H286.198C286.198 449.286 286.13 448.984 285.995 448.719C285.862 448.453 285.672 448.243 285.424 448.09C285.18 447.936 284.89 447.859 284.557 447.859C284.19 447.859 283.872 447.951 283.604 448.133C283.338 448.312 283.134 448.547 282.991 448.836C282.847 449.125 282.776 449.435 282.776 449.766V450.297C282.776 450.75 282.854 451.134 283.01 451.449C283.169 451.762 283.389 452 283.67 452.164C283.952 452.326 284.278 452.406 284.651 452.406C284.893 452.406 285.112 452.372 285.307 452.305C285.505 452.234 285.676 452.13 285.819 451.992C285.962 451.852 286.073 451.677 286.151 451.469L287.042 451.719C286.948 452.021 286.79 452.286 286.569 452.516C286.347 452.742 286.074 452.919 285.749 453.047C285.423 453.172 285.057 453.234 284.651 453.234ZM290.975 453.234C290.413 453.234 289.928 453.102 289.522 452.836C289.116 452.57 288.803 452.204 288.584 451.738C288.366 451.272 288.256 450.74 288.256 450.141C288.256 449.531 288.368 448.993 288.592 448.527C288.819 448.059 289.134 447.693 289.538 447.43C289.944 447.164 290.418 447.031 290.959 447.031C291.381 447.031 291.762 447.109 292.1 447.266C292.439 447.422 292.716 447.641 292.932 447.922C293.148 448.203 293.282 448.531 293.334 448.906H292.413C292.342 448.633 292.186 448.391 291.944 448.18C291.704 447.966 291.381 447.859 290.975 447.859C290.616 447.859 290.301 447.953 290.03 448.141C289.762 448.326 289.552 448.587 289.401 448.926C289.252 449.262 289.178 449.656 289.178 450.109C289.178 450.573 289.251 450.977 289.397 451.32C289.545 451.664 289.754 451.931 290.022 452.121C290.293 452.311 290.611 452.406 290.975 452.406C291.215 452.406 291.432 452.365 291.627 452.281C291.823 452.198 291.988 452.078 292.124 451.922C292.259 451.766 292.355 451.578 292.413 451.359H293.334C293.282 451.714 293.153 452.033 292.948 452.316C292.745 452.598 292.475 452.822 292.139 452.988C291.806 453.152 291.418 453.234 290.975 453.234Z" fill="#0B1426"/>
<path d="M375.998 445.109V453.109H375.029V446.125H374.982L373.029 447.422V446.437L375.029 445.109H375.998ZM380.845 445C381.173 445.003 381.501 445.065 381.83 445.187C382.158 445.31 382.457 445.513 382.728 445.797C382.999 446.078 383.216 446.462 383.38 446.949C383.544 447.436 383.626 448.047 383.626 448.781C383.626 449.492 383.559 450.124 383.423 450.676C383.291 451.225 383.098 451.689 382.845 452.066C382.595 452.444 382.291 452.73 381.931 452.926C381.574 453.121 381.171 453.219 380.72 453.219C380.272 453.219 379.873 453.13 379.521 452.953C379.172 452.773 378.886 452.525 378.662 452.207C378.44 451.887 378.298 451.516 378.236 451.094H379.189C379.275 451.461 379.445 451.764 379.701 452.004C379.958 452.241 380.298 452.359 380.72 452.359C381.337 452.359 381.824 452.09 382.181 451.551C382.541 451.012 382.72 450.25 382.72 449.266H382.658C382.512 449.484 382.339 449.673 382.138 449.832C381.938 449.991 381.715 450.113 381.47 450.199C381.225 450.285 380.965 450.328 380.689 450.328C380.231 450.328 379.81 450.215 379.427 449.988C379.047 449.759 378.742 449.445 378.513 449.047C378.287 448.646 378.173 448.187 378.173 447.672C378.173 447.182 378.283 446.734 378.501 446.328C378.723 445.919 379.033 445.594 379.431 445.352C379.832 445.109 380.304 444.992 380.845 445ZM380.845 445.859C380.517 445.859 380.222 445.941 379.958 446.105C379.698 446.267 379.491 446.486 379.337 446.762C379.186 447.035 379.111 447.339 379.111 447.672C379.111 448.005 379.184 448.309 379.33 448.582C379.478 448.853 379.68 449.069 379.935 449.23C380.193 449.389 380.486 449.469 380.814 449.469C381.061 449.469 381.292 449.421 381.505 449.324C381.719 449.225 381.905 449.091 382.064 448.922C382.225 448.75 382.352 448.556 382.443 448.34C382.534 448.121 382.58 447.893 382.58 447.656C382.58 447.344 382.504 447.051 382.353 446.777C382.205 446.504 381.999 446.283 381.736 446.113C381.475 445.944 381.179 445.859 380.845 445.859ZM390.866 453.109H388.397V445.109H390.975C391.751 445.109 392.415 445.27 392.967 445.59C393.519 445.908 393.943 446.365 394.237 446.961C394.531 447.555 394.678 448.266 394.678 449.094C394.678 449.927 394.53 450.645 394.233 451.246C393.936 451.845 393.504 452.306 392.936 452.629C392.368 452.949 391.678 453.109 390.866 453.109ZM389.366 452.25H390.803C391.465 452.25 392.013 452.122 392.448 451.867C392.883 451.612 393.207 451.249 393.42 450.777C393.634 450.306 393.741 449.745 393.741 449.094C393.741 448.448 393.635 447.892 393.424 447.426C393.213 446.957 392.898 446.598 392.479 446.348C392.06 446.095 391.538 445.969 390.913 445.969H389.366V452.25ZM398.694 453.234C398.116 453.234 397.617 453.107 397.198 452.852C396.781 452.594 396.459 452.234 396.233 451.773C396.009 451.31 395.897 450.771 395.897 450.156C395.897 449.542 396.009 449 396.233 448.531C396.459 448.06 396.775 447.693 397.178 447.43C397.584 447.164 398.058 447.031 398.6 447.031C398.913 447.031 399.221 447.083 399.526 447.187C399.831 447.292 400.108 447.461 400.358 447.695C400.608 447.927 400.807 448.234 400.956 448.617C401.104 449 401.178 449.471 401.178 450.031V450.422H396.553V449.625H400.241C400.241 449.286 400.173 448.984 400.038 448.719C399.905 448.453 399.715 448.243 399.467 448.09C399.222 447.936 398.933 447.859 398.6 447.859C398.233 447.859 397.915 447.951 397.647 448.133C397.381 448.312 397.177 448.547 397.034 448.836C396.89 449.125 396.819 449.435 396.819 449.766V450.297C396.819 450.75 396.897 451.134 397.053 451.449C397.212 451.762 397.432 452 397.713 452.164C397.995 452.326 398.321 452.406 398.694 452.406C398.936 452.406 399.155 452.372 399.35 452.305C399.548 452.234 399.719 452.13 399.862 451.992C400.005 451.852 400.116 451.677 400.194 451.469L401.084 451.719C400.991 452.021 400.833 452.286 400.612 452.516C400.39 452.742 400.117 452.919 399.792 453.047C399.466 453.172 399.1 453.234 398.694 453.234ZM405.018 453.234C404.456 453.234 403.971 453.102 403.565 452.836C403.159 452.57 402.846 452.204 402.627 451.738C402.409 451.272 402.299 450.74 402.299 450.141C402.299 449.531 402.411 448.993 402.635 448.527C402.862 448.059 403.177 447.693 403.581 447.43C403.987 447.164 404.461 447.031 405.002 447.031C405.424 447.031 405.805 447.109 406.143 447.266C406.482 447.422 406.759 447.641 406.975 447.922C407.191 448.203 407.325 448.531 407.377 448.906H406.456C406.385 448.633 406.229 448.391 405.987 448.18C405.747 447.966 405.424 447.859 405.018 447.859C404.659 447.859 404.344 447.953 404.073 448.141C403.805 448.326 403.595 448.587 403.444 448.926C403.295 449.262 403.221 449.656 403.221 450.109C403.221 450.573 403.294 450.977 403.44 451.32C403.588 451.664 403.797 451.931 404.065 452.121C404.336 452.311 404.653 452.406 405.018 452.406C405.258 452.406 405.475 452.365 405.67 452.281C405.866 452.198 406.031 452.078 406.167 451.922C406.302 451.766 406.398 451.578 406.456 451.359H407.377C407.325 451.714 407.196 452.033 406.991 452.316C406.788 452.598 406.518 452.822 406.182 452.988C405.849 453.152 405.461 453.234 405.018 453.234Z" fill="#0B1426"/>
<path d="M487.406 453.109V452.406L490.047 449.516C490.357 449.177 490.612 448.883 490.813 448.633C491.013 448.38 491.161 448.143 491.258 447.922C491.357 447.698 491.406 447.464 491.406 447.219C491.406 446.938 491.339 446.694 491.203 446.488C491.07 446.283 490.888 446.124 490.656 446.012C490.424 445.9 490.164 445.844 489.875 445.844C489.568 445.844 489.299 445.908 489.07 446.035C488.844 446.16 488.668 446.336 488.543 446.562C488.421 446.789 488.359 447.055 488.359 447.359H487.438C487.438 446.891 487.546 446.479 487.762 446.125C487.978 445.771 488.272 445.495 488.645 445.297C489.02 445.099 489.44 445 489.906 445C490.375 445 490.79 445.099 491.152 445.297C491.514 445.495 491.798 445.762 492.004 446.098C492.21 446.434 492.312 446.807 492.312 447.219C492.312 447.513 492.259 447.801 492.152 448.082C492.048 448.361 491.866 448.672 491.605 449.016C491.348 449.357 490.99 449.773 490.531 450.266L488.734 452.187V452.25H492.453V453.109H487.406ZM496.676 453.219C496.087 453.219 495.586 453.059 495.172 452.738C494.758 452.415 494.441 451.948 494.223 451.336C494.004 450.721 493.895 449.979 493.895 449.109C493.895 448.245 494.004 447.507 494.223 446.895C494.444 446.28 494.762 445.811 495.176 445.488C495.592 445.163 496.092 445 496.676 445C497.259 445 497.758 445.163 498.172 445.488C498.589 445.811 498.906 446.28 499.125 446.895C499.346 447.507 499.457 448.245 499.457 449.109C499.457 449.979 499.348 450.721 499.129 451.336C498.91 451.948 498.594 452.415 498.18 452.738C497.766 453.059 497.264 453.219 496.676 453.219ZM496.676 452.359C497.259 452.359 497.712 452.078 498.035 451.516C498.358 450.953 498.52 450.151 498.52 449.109C498.52 448.417 498.445 447.827 498.297 447.34C498.151 446.853 497.94 446.482 497.664 446.227C497.391 445.971 497.061 445.844 496.676 445.844C496.098 445.844 495.646 446.129 495.32 446.699C494.995 447.267 494.832 448.07 494.832 449.109C494.832 449.802 494.905 450.391 495.051 450.875C495.197 451.359 495.406 451.728 495.68 451.98C495.956 452.233 496.288 452.359 496.676 452.359ZM506.645 453.109H504.176V445.109H506.754C507.53 445.109 508.194 445.27 508.746 445.59C509.298 445.908 509.721 446.365 510.016 446.961C510.31 447.555 510.457 448.266 510.457 449.094C510.457 449.927 510.309 450.645 510.012 451.246C509.715 451.845 509.283 452.306 508.715 452.629C508.147 452.949 507.457 453.109 506.645 453.109ZM505.145 452.25H506.582C507.243 452.25 507.792 452.122 508.227 451.867C508.661 451.612 508.986 451.249 509.199 450.777C509.413 450.306 509.52 449.745 509.52 449.094C509.52 448.448 509.414 447.892 509.203 447.426C508.992 446.957 508.677 446.598 508.258 446.348C507.839 446.095 507.316 445.969 506.691 445.969H505.145V452.25ZM514.473 453.234C513.895 453.234 513.396 453.107 512.977 452.852C512.56 452.594 512.238 452.234 512.012 451.773C511.788 451.31 511.676 450.771 511.676 450.156C511.676 449.542 511.788 449 512.012 448.531C512.238 448.06 512.553 447.693 512.957 447.43C513.363 447.164 513.837 447.031 514.379 447.031C514.691 447.031 515 447.083 515.305 447.187C515.609 447.292 515.887 447.461 516.137 447.695C516.387 447.927 516.586 448.234 516.734 448.617C516.883 449 516.957 449.471 516.957 450.031V450.422H512.332V449.625H516.02C516.02 449.286 515.952 448.984 515.816 448.719C515.684 448.453 515.493 448.243 515.246 448.09C515.001 447.936 514.712 447.859 514.379 447.859C514.012 447.859 513.694 447.951 513.426 448.133C513.16 448.312 512.956 448.547 512.813 448.836C512.669 449.125 512.598 449.435 512.598 449.766V450.297C512.598 450.75 512.676 451.134 512.832 451.449C512.991 451.762 513.211 452 513.492 452.164C513.773 452.326 514.1 452.406 514.473 452.406C514.715 452.406 514.934 452.372 515.129 452.305C515.327 452.234 515.497 452.13 515.641 451.992C515.784 451.852 515.895 451.677 515.973 451.469L516.863 451.719C516.77 452.021 516.612 452.286 516.391 452.516C516.169 452.742 515.896 452.919 515.57 453.047C515.245 453.172 514.879 453.234 514.473 453.234ZM520.797 453.234C520.234 453.234 519.75 453.102 519.344 452.836C518.938 452.57 518.625 452.204 518.406 451.738C518.188 451.272 518.078 450.74 518.078 450.141C518.078 449.531 518.19 448.993 518.414 448.527C518.641 448.059 518.956 447.693 519.359 447.43C519.766 447.164 520.24 447.031 520.781 447.031C521.203 447.031 521.583 447.109 521.922 447.266C522.26 447.422 522.538 447.641 522.754 447.922C522.97 448.203 523.104 448.531 523.156 448.906H522.234C522.164 448.633 522.008 448.391 521.766 448.18C521.526 447.966 521.203 447.859 520.797 447.859C520.438 447.859 520.122 447.953 519.852 448.141C519.583 448.326 519.374 448.587 519.223 448.926C519.074 449.262 519 449.656 519 450.109C519 450.573 519.073 450.977 519.219 451.32C519.367 451.664 519.576 451.931 519.844 452.121C520.115 452.311 520.432 452.406 520.797 452.406C521.036 452.406 521.254 452.365 521.449 452.281C521.645 452.198 521.81 452.078 521.945 451.922C522.081 451.766 522.177 451.578 522.234 451.359H523.156C523.104 451.714 522.975 452.033 522.77 452.316C522.566 452.598 522.297 452.822 521.961 452.988C521.628 453.152 521.24 453.234 520.797 453.234Z" fill="#0B1426"/>
<path d="M603.287 453.109V452.406L605.928 449.516C606.238 449.177 606.493 448.883 606.693 448.633C606.894 448.38 607.042 448.143 607.139 447.922C607.238 447.698 607.287 447.464 607.287 447.219C607.287 446.938 607.219 446.694 607.084 446.488C606.951 446.283 606.769 446.124 606.537 446.012C606.305 445.9 606.045 445.844 605.756 445.844C605.449 445.844 605.18 445.908 604.951 446.035C604.725 446.16 604.549 446.336 604.424 446.562C604.301 446.789 604.24 447.055 604.24 447.359H603.318C603.318 446.891 603.426 446.479 603.643 446.125C603.859 445.771 604.153 445.495 604.525 445.297C604.9 445.099 605.321 445 605.787 445C606.256 445 606.671 445.099 607.033 445.297C607.395 445.495 607.679 445.762 607.885 446.098C608.09 446.434 608.193 446.807 608.193 447.219C608.193 447.513 608.14 447.801 608.033 448.082C607.929 448.361 607.747 448.672 607.486 449.016C607.229 449.357 606.87 449.773 606.412 450.266L604.615 452.187V452.25H608.334V453.109H603.287ZM612.76 445.109V453.109H611.791V446.125H611.744L609.791 447.422V446.437L611.791 445.109H612.76ZM620.764 453.109H618.295V445.109H620.873C621.649 445.109 622.313 445.27 622.865 445.59C623.417 445.908 623.84 446.365 624.135 446.961C624.429 447.555 624.576 448.266 624.576 449.094C624.576 449.927 624.428 450.645 624.131 451.246C623.834 451.845 623.402 452.306 622.834 452.629C622.266 452.949 621.576 453.109 620.764 453.109ZM619.264 452.25H620.701C621.363 452.25 621.911 452.122 622.346 451.867C622.781 451.612 623.105 451.249 623.318 450.777C623.532 450.306 623.639 449.745 623.639 449.094C623.639 448.448 623.533 447.892 623.322 447.426C623.111 446.957 622.796 446.598 622.377 446.348C621.958 446.095 621.436 445.969 620.811 445.969H619.264V452.25ZM628.592 453.234C628.014 453.234 627.515 453.107 627.096 452.852C626.679 452.594 626.357 452.234 626.131 451.773C625.907 451.31 625.795 450.771 625.795 450.156C625.795 449.542 625.907 449 626.131 448.531C626.357 448.06 626.673 447.693 627.076 447.43C627.482 447.164 627.956 447.031 628.498 447.031C628.811 447.031 629.119 447.083 629.424 447.187C629.729 447.292 630.006 447.461 630.256 447.695C630.506 447.927 630.705 448.234 630.854 448.617C631.002 449 631.076 449.471 631.076 450.031V450.422H626.451V449.625H630.139C630.139 449.286 630.071 448.984 629.936 448.719C629.803 448.453 629.613 448.243 629.365 448.09C629.12 447.936 628.831 447.859 628.498 447.859C628.131 447.859 627.813 447.951 627.545 448.133C627.279 448.312 627.075 448.547 626.932 448.836C626.788 449.125 626.717 449.435 626.717 449.766V450.297C626.717 450.75 626.795 451.134 626.951 451.449C627.11 451.762 627.33 452 627.611 452.164C627.893 452.326 628.219 452.406 628.592 452.406C628.834 452.406 629.053 452.372 629.248 452.305C629.446 452.234 629.617 452.13 629.76 451.992C629.903 451.852 630.014 451.677 630.092 451.469L630.982 451.719C630.889 452.021 630.731 452.286 630.51 452.516C630.288 452.742 630.015 452.919 629.689 453.047C629.364 453.172 628.998 453.234 628.592 453.234ZM634.916 453.234C634.354 453.234 633.869 453.102 633.463 452.836C633.057 452.57 632.744 452.204 632.525 451.738C632.307 451.272 632.197 450.74 632.197 450.141C632.197 449.531 632.309 448.993 632.533 448.527C632.76 448.059 633.075 447.693 633.479 447.43C633.885 447.164 634.359 447.031 634.9 447.031C635.322 447.031 635.702 447.109 636.041 447.266C636.38 447.422 636.657 447.641 636.873 447.922C637.089 448.203 637.223 448.531 637.275 448.906H636.354C636.283 448.633 636.127 448.391 635.885 448.18C635.645 447.966 635.322 447.859 634.916 447.859C634.557 447.859 634.242 447.953 633.971 448.141C633.702 448.326 633.493 448.587 633.342 448.926C633.193 449.262 633.119 449.656 633.119 450.109C633.119 450.573 633.192 450.977 633.338 451.32C633.486 451.664 633.695 451.931 633.963 452.121C634.234 452.311 634.551 452.406 634.916 452.406C635.156 452.406 635.373 452.365 635.568 452.281C635.764 452.198 635.929 452.078 636.064 451.922C636.2 451.766 636.296 451.578 636.354 451.359H637.275C637.223 451.714 637.094 452.033 636.889 452.316C636.686 452.598 636.416 452.822 636.08 452.988C635.747 453.152 635.359 453.234 634.916 453.234Z" fill="#0B1426"/>
<path d="M717.014 453.109V452.406L719.654 449.516C719.964 449.177 720.219 448.883 720.42 448.633C720.62 448.38 720.769 448.143 720.865 447.922C720.964 447.698 721.014 447.464 721.014 447.219C721.014 446.938 720.946 446.694 720.811 446.488C720.678 446.283 720.495 446.124 720.264 446.012C720.032 445.9 719.771 445.844 719.482 445.844C719.175 445.844 718.907 445.908 718.678 446.035C718.451 446.16 718.275 446.336 718.15 446.562C718.028 446.789 717.967 447.055 717.967 447.359H717.045C717.045 446.891 717.153 446.479 717.369 446.125C717.585 445.771 717.88 445.495 718.252 445.297C718.627 445.099 719.048 445 719.514 445C719.982 445 720.398 445.099 720.76 445.297C721.122 445.495 721.406 445.762 721.611 446.098C721.817 446.434 721.92 446.807 721.92 447.219C721.92 447.513 721.867 447.801 721.76 448.082C721.656 448.361 721.473 448.672 721.213 449.016C720.955 449.357 720.597 449.773 720.139 450.266L718.342 452.187V452.25H722.061V453.109H717.014ZM723.674 453.109V452.406L726.314 449.516C726.624 449.177 726.88 448.883 727.08 448.633C727.281 448.38 727.429 448.143 727.525 447.922C727.624 447.698 727.674 447.464 727.674 447.219C727.674 446.938 727.606 446.694 727.471 446.488C727.338 446.283 727.156 446.124 726.924 446.012C726.692 445.9 726.432 445.844 726.143 445.844C725.835 445.844 725.567 445.908 725.338 446.035C725.111 446.16 724.936 446.336 724.811 446.562C724.688 446.789 724.627 447.055 724.627 447.359H723.705C723.705 446.891 723.813 446.479 724.029 446.125C724.245 445.771 724.54 445.495 724.912 445.297C725.287 445.099 725.708 445 726.174 445C726.643 445 727.058 445.099 727.42 445.297C727.782 445.495 728.066 445.762 728.271 446.098C728.477 446.434 728.58 446.807 728.58 447.219C728.58 447.513 728.527 447.801 728.42 448.082C728.316 448.361 728.133 448.672 727.873 449.016C727.615 449.357 727.257 449.773 726.799 450.266L725.002 452.187V452.25H728.721V453.109H723.674ZM736.037 453.109H733.568V445.109H736.146C736.923 445.109 737.587 445.27 738.139 445.59C738.691 445.908 739.114 446.365 739.408 446.961C739.702 447.555 739.85 448.266 739.85 449.094C739.85 449.927 739.701 450.645 739.404 451.246C739.107 451.845 738.675 452.306 738.107 452.629C737.54 452.949 736.85 453.109 736.037 453.109ZM734.537 452.25H735.975C736.636 452.25 737.184 452.122 737.619 451.867C738.054 451.612 738.378 451.249 738.592 450.777C738.805 450.306 738.912 449.745 738.912 449.094C738.912 448.448 738.807 447.892 738.596 447.426C738.385 446.957 738.07 446.598 737.65 446.348C737.231 446.095 736.709 445.969 736.084 445.969H734.537V452.25ZM743.865 453.234C743.287 453.234 742.788 453.107 742.369 452.852C741.952 452.594 741.631 452.234 741.404 451.773C741.18 451.31 741.068 450.771 741.068 450.156C741.068 449.542 741.18 449 741.404 448.531C741.631 448.06 741.946 447.693 742.35 447.43C742.756 447.164 743.23 447.031 743.771 447.031C744.084 447.031 744.393 447.083 744.697 447.187C745.002 447.292 745.279 447.461 745.529 447.695C745.779 447.927 745.979 448.234 746.127 448.617C746.275 449 746.35 449.471 746.35 450.031V450.422H741.725V449.625H745.412C745.412 449.286 745.344 448.984 745.209 448.719C745.076 448.453 744.886 448.243 744.639 448.09C744.394 447.936 744.105 447.859 743.771 447.859C743.404 447.859 743.087 447.951 742.818 448.133C742.553 448.312 742.348 448.547 742.205 448.836C742.062 449.125 741.99 449.435 741.99 449.766V450.297C741.99 450.75 742.068 451.134 742.225 451.449C742.383 451.762 742.604 452 742.885 452.164C743.166 452.326 743.493 452.406 743.865 452.406C744.107 452.406 744.326 452.372 744.521 452.305C744.719 452.234 744.89 452.13 745.033 451.992C745.176 451.852 745.287 451.677 745.365 451.469L746.256 451.719C746.162 452.021 746.005 452.286 745.783 452.516C745.562 452.742 745.288 452.919 744.963 453.047C744.637 453.172 744.271 453.234 743.865 453.234ZM750.189 453.234C749.627 453.234 749.143 453.102 748.736 452.836C748.33 452.57 748.018 452.204 747.799 451.738C747.58 451.272 747.471 450.74 747.471 450.141C747.471 449.531 747.583 448.993 747.807 448.527C748.033 448.059 748.348 447.693 748.752 447.43C749.158 447.164 749.632 447.031 750.174 447.031C750.596 447.031 750.976 447.109 751.314 447.266C751.653 447.422 751.93 447.641 752.146 447.922C752.363 448.203 752.497 448.531 752.549 448.906H751.627C751.557 448.633 751.4 448.391 751.158 448.18C750.919 447.966 750.596 447.859 750.189 447.859C749.83 447.859 749.515 447.953 749.244 448.141C748.976 448.326 748.766 448.587 748.615 448.926C748.467 449.262 748.393 449.656 748.393 450.109C748.393 450.573 748.465 450.977 748.611 451.32C748.76 451.664 748.968 451.931 749.236 452.121C749.507 452.311 749.825 452.406 750.189 452.406C750.429 452.406 750.646 452.365 750.842 452.281C751.037 452.198 751.202 452.078 751.338 451.922C751.473 451.766 751.57 451.578 751.627 451.359H752.549C752.497 451.714 752.368 452.033 752.162 452.316C751.959 452.598 751.689 452.822 751.354 452.988C751.02 453.152 750.632 453.234 750.189 453.234Z" fill="#0B1426"/>
<path d="M-0.265686 369.469V368.672L3.24994 363.109H3.82806V364.344H3.43744L0.781189 368.547V368.609H5.51556V369.469H-0.265686ZM3.49994 371.109V369.227V368.855V363.109H4.42181V371.109H3.49994ZM6.97943 371.109V370.406L9.62006 367.516C9.92995 367.177 10.1852 366.883 10.3857 366.633C10.5862 366.38 10.7346 366.143 10.831 365.922C10.93 365.698 10.9794 365.464 10.9794 365.219C10.9794 364.938 10.9117 364.694 10.7763 364.488C10.6435 364.283 10.4612 364.124 10.2294 364.012C9.99766 363.9 9.73724 363.844 9.44818 363.844C9.14089 363.844 8.87266 363.908 8.64349 364.035C8.41693 364.16 8.24115 364.336 8.11615 364.562C7.99375 364.789 7.93256 365.055 7.93256 365.359H7.01068C7.01068 364.891 7.11875 364.479 7.3349 364.125C7.55105 363.771 7.84532 363.495 8.21771 363.297C8.59271 363.099 9.01329 363 9.47943 363C9.94818 363 10.3635 363.099 10.7255 363.297C11.0875 363.495 11.3714 363.762 11.5771 364.098C11.7828 364.434 11.8857 364.807 11.8857 365.219C11.8857 365.513 11.8323 365.801 11.7255 366.082C11.6214 366.361 11.4391 366.672 11.1786 367.016C10.9208 367.357 10.5628 367.773 10.1044 368.266L8.30756 370.187V370.25H12.0263V371.109H6.97943ZM15.0302 370.016L14.9677 370.437C14.9234 370.734 14.8557 371.052 14.7646 371.391C14.676 371.729 14.5836 372.048 14.4872 372.348C14.3909 372.647 14.3115 372.885 14.249 373.063H13.5458C13.5797 372.896 13.624 372.676 13.6786 372.402C13.7333 372.129 13.788 371.823 13.8427 371.484C13.9 371.148 13.9469 370.805 13.9833 370.453L14.0302 370.016H15.0302ZM19.0527 371.219C18.4641 371.219 17.9628 371.059 17.5488 370.738C17.1347 370.415 16.8183 369.948 16.5995 369.336C16.3808 368.721 16.2714 367.979 16.2714 367.109C16.2714 366.245 16.3808 365.507 16.5995 364.895C16.8209 364.28 17.1386 363.811 17.5527 363.488C17.9693 363.163 18.4693 363 19.0527 363C19.636 363 20.1347 363.163 20.5488 363.488C20.9654 363.811 21.2831 364.28 21.5019 364.895C21.7232 365.507 21.8339 366.245 21.8339 367.109C21.8339 367.979 21.7245 368.721 21.5058 369.336C21.287 369.948 20.9706 370.415 20.5566 370.738C20.1425 371.059 19.6412 371.219 19.0527 371.219ZM19.0527 370.359C19.636 370.359 20.0891 370.078 20.412 369.516C20.735 368.953 20.8964 368.151 20.8964 367.109C20.8964 366.417 20.8222 365.827 20.6738 365.34C20.5279 364.853 20.317 364.482 20.041 364.227C19.7675 363.971 19.4381 363.844 19.0527 363.844C18.4745 363.844 18.0227 364.129 17.6972 364.699C17.3717 365.267 17.2089 366.07 17.2089 367.109C17.2089 367.802 17.2818 368.391 17.4277 368.875C17.5735 369.359 17.7831 369.728 18.0566 369.98C18.3326 370.233 18.6647 370.359 19.0527 370.359ZM25.9277 371.219C25.3391 371.219 24.8378 371.059 24.4238 370.738C24.0097 370.415 23.6933 369.948 23.4745 369.336C23.2558 368.721 23.1464 367.979 23.1464 367.109C23.1464 366.245 23.2558 365.507 23.4745 364.895C23.6959 364.28 24.0136 363.811 24.4277 363.488C24.8443 363.163 25.3443 363 25.9277 363C26.511 363 27.0097 363.163 27.4238 363.488C27.8404 363.811 28.1581 364.28 28.3769 364.895C28.5982 365.507 28.7089 366.245 28.7089 367.109C28.7089 367.979 28.5995 368.721 28.3808 369.336C28.162 369.948 27.8456 370.415 27.4316 370.738C27.0175 371.059 26.5162 371.219 25.9277 371.219ZM25.9277 370.359C26.511 370.359 26.9641 370.078 27.287 369.516C27.61 368.953 27.7714 368.151 27.7714 367.109C27.7714 366.417 27.6972 365.827 27.5488 365.34C27.4029 364.853 27.192 364.482 26.916 364.227C26.6425 363.971 26.3131 363.844 25.9277 363.844C25.3495 363.844 24.8977 364.129 24.5722 364.699C24.2467 365.267 24.0839 366.07 24.0839 367.109C24.0839 367.802 24.1568 368.391 24.3027 368.875C24.4485 369.359 24.6581 369.728 24.9316 369.98C25.2076 370.233 25.5397 370.359 25.9277 370.359ZM32.8027 371.219C32.2141 371.219 31.7128 371.059 31.2988 370.738C30.8847 370.415 30.5683 369.948 30.3495 369.336C30.1308 368.721 30.0214 367.979 30.0214 367.109C30.0214 366.245 30.1308 365.507 30.3495 364.895C30.5709 364.28 30.8886 363.811 31.3027 363.488C31.7193 363.163 32.2193 363 32.8027 363C33.386 363 33.8847 363.163 34.2988 363.488C34.7154 363.811 35.0331 364.28 35.2519 364.895C35.4732 365.507 35.5839 366.245 35.5839 367.109C35.5839 367.979 35.4745 368.721 35.2558 369.336C35.037 369.948 34.7206 370.415 34.3066 370.738C33.8925 371.059 33.3912 371.219 32.8027 371.219ZM32.8027 370.359C33.386 370.359 33.8391 370.078 34.162 369.516C34.485 368.953 34.6464 368.151 34.6464 367.109C34.6464 366.417 34.5722 365.827 34.4238 365.34C34.2779 364.853 34.067 364.482 33.791 364.227C33.5175 363.971 33.1881 363.844 32.8027 363.844C32.2245 363.844 31.7727 364.129 31.4472 364.699C31.1217 365.267 30.9589 366.07 30.9589 367.109C30.9589 367.802 31.0318 368.391 31.1777 368.875C31.3235 369.359 31.5331 369.728 31.8066 369.98C32.0826 370.233 32.4147 370.359 32.8027 370.359Z" fill="#0B1426"/>
<path d="M-0.265686 310.469V309.672L3.24994 304.109H3.82806V305.344H3.43744L0.781189 309.547V309.609H5.51556V310.469H-0.265686ZM3.49994 312.109V310.227V309.855V304.109H4.42181V312.109H3.49994ZM6.97943 312.109V311.406L9.62006 308.516C9.92995 308.177 10.1852 307.883 10.3857 307.633C10.5862 307.38 10.7346 307.143 10.831 306.922C10.93 306.698 10.9794 306.464 10.9794 306.219C10.9794 305.938 10.9117 305.694 10.7763 305.488C10.6435 305.283 10.4612 305.124 10.2294 305.012C9.99766 304.9 9.73724 304.844 9.44818 304.844C9.14089 304.844 8.87266 304.908 8.64349 305.035C8.41693 305.16 8.24115 305.336 8.11615 305.562C7.99375 305.789 7.93256 306.055 7.93256 306.359H7.01068C7.01068 305.891 7.11875 305.479 7.3349 305.125C7.55105 304.771 7.84532 304.495 8.21771 304.297C8.59271 304.099 9.01329 304 9.47943 304C9.94818 304 10.3635 304.099 10.7255 304.297C11.0875 304.495 11.3714 304.762 11.5771 305.098C11.7828 305.434 11.8857 305.807 11.8857 306.219C11.8857 306.513 11.8323 306.801 11.7255 307.082C11.6214 307.361 11.4391 307.672 11.1786 308.016C10.9208 308.357 10.5628 308.773 10.1044 309.266L8.30756 311.187V311.25H12.0263V312.109H6.97943ZM15.0302 311.016L14.9677 311.437C14.9234 311.734 14.8557 312.052 14.7646 312.391C14.676 312.729 14.5836 313.048 14.4872 313.348C14.3909 313.647 14.3115 313.885 14.249 314.063H13.5458C13.5797 313.896 13.624 313.676 13.6786 313.402C13.7333 313.129 13.788 312.823 13.8427 312.484C13.9 312.148 13.9469 311.805 13.9833 311.453L14.0302 311.016H15.0302ZM19.0527 312.219C18.4641 312.219 17.9628 312.059 17.5488 311.738C17.1347 311.415 16.8183 310.948 16.5995 310.336C16.3808 309.721 16.2714 308.979 16.2714 308.109C16.2714 307.245 16.3808 306.507 16.5995 305.895C16.8209 305.28 17.1386 304.811 17.5527 304.488C17.9693 304.163 18.4693 304 19.0527 304C19.636 304 20.1347 304.163 20.5488 304.488C20.9654 304.811 21.2831 305.28 21.5019 305.895C21.7232 306.507 21.8339 307.245 21.8339 308.109C21.8339 308.979 21.7245 309.721 21.5058 310.336C21.287 310.948 20.9706 311.415 20.5566 311.738C20.1425 312.059 19.6412 312.219 19.0527 312.219ZM19.0527 311.359C19.636 311.359 20.0891 311.078 20.412 310.516C20.735 309.953 20.8964 309.151 20.8964 308.109C20.8964 307.417 20.8222 306.827 20.6738 306.34C20.5279 305.853 20.317 305.482 20.041 305.227C19.7675 304.971 19.4381 304.844 19.0527 304.844C18.4745 304.844 18.0227 305.129 17.6972 305.699C17.3717 306.267 17.2089 307.07 17.2089 308.109C17.2089 308.802 17.2818 309.391 17.4277 309.875C17.5735 310.359 17.7831 310.728 18.0566 310.98C18.3326 311.233 18.6647 311.359 19.0527 311.359ZM25.9277 312.219C25.3391 312.219 24.8378 312.059 24.4238 311.738C24.0097 311.415 23.6933 310.948 23.4745 310.336C23.2558 309.721 23.1464 308.979 23.1464 308.109C23.1464 307.245 23.2558 306.507 23.4745 305.895C23.6959 305.28 24.0136 304.811 24.4277 304.488C24.8443 304.163 25.3443 304 25.9277 304C26.511 304 27.0097 304.163 27.4238 304.488C27.8404 304.811 28.1581 305.28 28.3769 305.895C28.5982 306.507 28.7089 307.245 28.7089 308.109C28.7089 308.979 28.5995 309.721 28.3808 310.336C28.162 310.948 27.8456 311.415 27.4316 311.738C27.0175 312.059 26.5162 312.219 25.9277 312.219ZM25.9277 311.359C26.511 311.359 26.9641 311.078 27.287 310.516C27.61 309.953 27.7714 309.151 27.7714 308.109C27.7714 307.417 27.6972 306.827 27.5488 306.34C27.4029 305.853 27.192 305.482 26.916 305.227C26.6425 304.971 26.3131 304.844 25.9277 304.844C25.3495 304.844 24.8977 305.129 24.5722 305.699C24.2467 306.267 24.0839 307.07 24.0839 308.109C24.0839 308.802 24.1568 309.391 24.3027 309.875C24.4485 310.359 24.6581 310.728 24.9316 310.98C25.2076 311.233 25.5397 311.359 25.9277 311.359ZM32.8027 312.219C32.2141 312.219 31.7128 312.059 31.2988 311.738C30.8847 311.415 30.5683 310.948 30.3495 310.336C30.1308 309.721 30.0214 308.979 30.0214 308.109C30.0214 307.245 30.1308 306.507 30.3495 305.895C30.5709 305.28 30.8886 304.811 31.3027 304.488C31.7193 304.163 32.2193 304 32.8027 304C33.386 304 33.8847 304.163 34.2988 304.488C34.7154 304.811 35.0331 305.28 35.2519 305.895C35.4732 306.507 35.5839 307.245 35.5839 308.109C35.5839 308.979 35.4745 309.721 35.2558 310.336C35.037 310.948 34.7206 311.415 34.3066 311.738C33.8925 312.059 33.3912 312.219 32.8027 312.219ZM32.8027 311.359C33.386 311.359 33.8391 311.078 34.162 310.516C34.485 309.953 34.6464 309.151 34.6464 308.109C34.6464 307.417 34.5722 306.827 34.4238 306.34C34.2779 305.853 34.067 305.482 33.791 305.227C33.5175 304.971 33.1881 304.844 32.8027 304.844C32.2245 304.844 31.7727 305.129 31.4472 305.699C31.1217 306.267 30.9589 307.07 30.9589 308.109C30.9589 308.802 31.0318 309.391 31.1777 309.875C31.3235 310.359 31.5331 310.728 31.8066 310.98C32.0826 311.233 32.4147 311.359 32.8027 311.359Z" fill="#0B1426"/>
<path d="M-0.28717 251.469V250.672L3.22845 245.109H3.80658V246.344H3.41595L0.759705 250.547V250.609H5.49408V251.469H-0.28717ZM3.47845 253.109V251.227V250.855V245.109H4.40033V253.109H3.47845ZM6.77045 251.469V250.672L10.2861 245.109H10.8642V246.344H10.4736L7.81732 250.547V250.609H12.5517V251.469H6.77045ZM10.5361 253.109V251.227V250.855V245.109H11.4579V253.109H10.5361ZM15.0302 252.016L14.9677 252.437C14.9234 252.734 14.8557 253.052 14.7646 253.391C14.676 253.729 14.5836 254.048 14.4872 254.348C14.3909 254.647 14.3115 254.885 14.249 255.063H13.5458C13.5797 254.896 13.624 254.676 13.6786 254.402C13.7333 254.129 13.788 253.823 13.8427 253.484C13.9 253.148 13.9469 252.805 13.9833 252.453L14.0302 252.016H15.0302ZM19.0527 253.219C18.4641 253.219 17.9628 253.059 17.5488 252.738C17.1347 252.415 16.8183 251.948 16.5995 251.336C16.3808 250.721 16.2714 249.979 16.2714 249.109C16.2714 248.245 16.3808 247.507 16.5995 246.895C16.8209 246.28 17.1386 245.811 17.5527 245.488C17.9693 245.163 18.4693 245 19.0527 245C19.636 245 20.1347 245.163 20.5488 245.488C20.9654 245.811 21.2831 246.28 21.5019 246.895C21.7232 247.507 21.8339 248.245 21.8339 249.109C21.8339 249.979 21.7245 250.721 21.5058 251.336C21.287 251.948 20.9706 252.415 20.5566 252.738C20.1425 253.059 19.6412 253.219 19.0527 253.219ZM19.0527 252.359C19.636 252.359 20.0891 252.078 20.412 251.516C20.735 250.953 20.8964 250.151 20.8964 249.109C20.8964 248.417 20.8222 247.827 20.6738 247.34C20.5279 246.853 20.317 246.482 20.041 246.227C19.7675 245.971 19.4381 245.844 19.0527 245.844C18.4745 245.844 18.0227 246.129 17.6972 246.699C17.3717 247.267 17.2089 248.07 17.2089 249.109C17.2089 249.802 17.2818 250.391 17.4277 250.875C17.5735 251.359 17.7831 251.728 18.0566 251.98C18.3326 252.233 18.6647 252.359 19.0527 252.359ZM25.9277 253.219C25.3391 253.219 24.8378 253.059 24.4238 252.738C24.0097 252.415 23.6933 251.948 23.4745 251.336C23.2558 250.721 23.1464 249.979 23.1464 249.109C23.1464 248.245 23.2558 247.507 23.4745 246.895C23.6959 246.28 24.0136 245.811 24.4277 245.488C24.8443 245.163 25.3443 245 25.9277 245C26.511 245 27.0097 245.163 27.4238 245.488C27.8404 245.811 28.1581 246.28 28.3769 246.895C28.5982 247.507 28.7089 248.245 28.7089 249.109C28.7089 249.979 28.5995 250.721 28.3808 251.336C28.162 251.948 27.8456 252.415 27.4316 252.738C27.0175 253.059 26.5162 253.219 25.9277 253.219ZM25.9277 252.359C26.511 252.359 26.9641 252.078 27.287 251.516C27.61 250.953 27.7714 250.151 27.7714 249.109C27.7714 248.417 27.6972 247.827 27.5488 247.34C27.4029 246.853 27.192 246.482 26.916 246.227C26.6425 245.971 26.3131 245.844 25.9277 245.844C25.3495 245.844 24.8977 246.129 24.5722 246.699C24.2467 247.267 24.0839 248.07 24.0839 249.109C24.0839 249.802 24.1568 250.391 24.3027 250.875C24.4485 251.359 24.6581 251.728 24.9316 251.98C25.2076 252.233 25.5397 252.359 25.9277 252.359ZM32.8027 253.219C32.2141 253.219 31.7128 253.059 31.2988 252.738C30.8847 252.415 30.5683 251.948 30.3495 251.336C30.1308 250.721 30.0214 249.979 30.0214 249.109C30.0214 248.245 30.1308 247.507 30.3495 246.895C30.5709 246.28 30.8886 245.811 31.3027 245.488C31.7193 245.163 32.2193 245 32.8027 245C33.386 245 33.8847 245.163 34.2988 245.488C34.7154 245.811 35.0331 246.28 35.2519 246.895C35.4732 247.507 35.5839 248.245 35.5839 249.109C35.5839 249.979 35.4745 250.721 35.2558 251.336C35.037 251.948 34.7206 252.415 34.3066 252.738C33.8925 253.059 33.3912 253.219 32.8027 253.219ZM32.8027 252.359C33.386 252.359 33.8391 252.078 34.162 251.516C34.485 250.953 34.6464 250.151 34.6464 249.109C34.6464 248.417 34.5722 247.827 34.4238 247.34C34.2779 246.853 34.067 246.482 33.791 246.227C33.5175 245.971 33.1881 245.844 32.8027 245.844C32.2245 245.844 31.7727 246.129 31.4472 246.699C31.1217 247.267 30.9589 248.07 30.9589 249.109C30.9589 249.802 31.0318 250.391 31.1777 250.875C31.3235 251.359 31.5331 251.728 31.8066 251.98C32.0826 252.233 32.4147 252.359 32.8027 252.359Z" fill="#0B1426"/>
<path d="M0.00286866 191.469V190.672L3.51849 185.109H4.09662V186.344H3.70599L1.04974 190.547V190.609H5.78412V191.469H0.00286866ZM3.76849 193.109V191.227V190.855V185.109H4.69037V193.109H3.76849ZM9.74799 193.219C9.28965 193.219 8.87689 193.128 8.5097 192.945C8.14252 192.763 7.84825 192.513 7.62689 192.195C7.40554 191.878 7.28444 191.516 7.26361 191.109H8.20111C8.23757 191.471 8.40163 191.771 8.6933 192.008C8.98757 192.242 9.33913 192.359 9.74799 192.359C10.0761 192.359 10.3678 192.283 10.623 192.129C10.8808 191.975 11.0826 191.764 11.2285 191.496C11.3769 191.225 11.4511 190.919 11.4511 190.578C11.4511 190.229 11.3743 189.918 11.2206 189.645C11.0696 189.368 10.8613 189.151 10.5956 188.992C10.33 188.833 10.0266 188.753 9.68549 188.75C9.44069 188.747 9.18939 188.785 8.93158 188.863C8.67377 188.939 8.46153 189.036 8.29486 189.156L7.38861 189.047L7.87299 185.109H12.0292V185.969H8.68549L8.40424 188.328H8.45111C8.61517 188.198 8.8209 188.09 9.0683 188.004C9.31569 187.918 9.57351 187.875 9.84174 187.875C10.3313 187.875 10.7675 187.992 11.1503 188.227C11.5357 188.458 11.8378 188.776 12.0566 189.18C12.2779 189.583 12.3886 190.044 12.3886 190.562C12.3886 191.073 12.274 191.529 12.0449 191.93C11.8183 192.328 11.5058 192.643 11.1074 192.875C10.7089 193.104 10.2558 193.219 9.74799 193.219ZM15.0302 192.016L14.9677 192.437C14.9234 192.734 14.8557 193.052 14.7646 193.391C14.676 193.729 14.5836 194.048 14.4872 194.348C14.3909 194.647 14.3115 194.885 14.249 195.063H13.5458C13.5797 194.896 13.624 194.676 13.6786 194.402C13.7333 194.129 13.788 193.823 13.8427 193.484C13.9 193.148 13.9469 192.805 13.9833 192.453L14.0302 192.016H15.0302ZM19.0527 193.219C18.4641 193.219 17.9628 193.059 17.5488 192.738C17.1347 192.415 16.8183 191.948 16.5995 191.336C16.3808 190.721 16.2714 189.979 16.2714 189.109C16.2714 188.245 16.3808 187.507 16.5995 186.895C16.8209 186.28 17.1386 185.811 17.5527 185.488C17.9693 185.163 18.4693 185 19.0527 185C19.636 185 20.1347 185.163 20.5488 185.488C20.9654 185.811 21.2831 186.28 21.5019 186.895C21.7232 187.507 21.8339 188.245 21.8339 189.109C21.8339 189.979 21.7245 190.721 21.5058 191.336C21.287 191.948 20.9706 192.415 20.5566 192.738C20.1425 193.059 19.6412 193.219 19.0527 193.219ZM19.0527 192.359C19.636 192.359 20.0891 192.078 20.412 191.516C20.735 190.953 20.8964 190.151 20.8964 189.109C20.8964 188.417 20.8222 187.827 20.6738 187.34C20.5279 186.853 20.317 186.482 20.041 186.227C19.7675 185.971 19.4381 185.844 19.0527 185.844C18.4745 185.844 18.0227 186.129 17.6972 186.699C17.3717 187.267 17.2089 188.07 17.2089 189.109C17.2089 189.802 17.2818 190.391 17.4277 190.875C17.5735 191.359 17.7831 191.728 18.0566 191.98C18.3326 192.233 18.6647 192.359 19.0527 192.359ZM25.9277 193.219C25.3391 193.219 24.8378 193.059 24.4238 192.738C24.0097 192.415 23.6933 191.948 23.4745 191.336C23.2558 190.721 23.1464 189.979 23.1464 189.109C23.1464 188.245 23.2558 187.507 23.4745 186.895C23.6959 186.28 24.0136 185.811 24.4277 185.488C24.8443 185.163 25.3443 185 25.9277 185C26.511 185 27.0097 185.163 27.4238 185.488C27.8404 185.811 28.1581 186.28 28.3769 186.895C28.5982 187.507 28.7089 188.245 28.7089 189.109C28.7089 189.979 28.5995 190.721 28.3808 191.336C28.162 191.948 27.8456 192.415 27.4316 192.738C27.0175 193.059 26.5162 193.219 25.9277 193.219ZM25.9277 192.359C26.511 192.359 26.9641 192.078 27.287 191.516C27.61 190.953 27.7714 190.151 27.7714 189.109C27.7714 188.417 27.6972 187.827 27.5488 187.34C27.4029 186.853 27.192 186.482 26.916 186.227C26.6425 185.971 26.3131 185.844 25.9277 185.844C25.3495 185.844 24.8977 186.129 24.5722 186.699C24.2467 187.267 24.0839 188.07 24.0839 189.109C24.0839 189.802 24.1568 190.391 24.3027 190.875C24.4485 191.359 24.6581 191.728 24.9316 191.98C25.2076 192.233 25.5397 192.359 25.9277 192.359ZM32.8027 193.219C32.2141 193.219 31.7128 193.059 31.2988 192.738C30.8847 192.415 30.5683 191.948 30.3495 191.336C30.1308 190.721 30.0214 189.979 30.0214 189.109C30.0214 188.245 30.1308 187.507 30.3495 186.895C30.5709 186.28 30.8886 185.811 31.3027 185.488C31.7193 185.163 32.2193 185 32.8027 185C33.386 185 33.8847 185.163 34.2988 185.488C34.7154 185.811 35.0331 186.28 35.2519 186.895C35.4732 187.507 35.5839 188.245 35.5839 189.109C35.5839 189.979 35.4745 190.721 35.2558 191.336C35.037 191.948 34.7206 192.415 34.3066 192.738C33.8925 193.059 33.3912 193.219 32.8027 193.219ZM32.8027 192.359C33.386 192.359 33.8391 192.078 34.162 191.516C34.485 190.953 34.6464 190.151 34.6464 189.109C34.6464 188.417 34.5722 187.827 34.4238 187.34C34.2779 186.853 34.067 186.482 33.791 186.227C33.5175 185.971 33.1881 185.844 32.8027 185.844C32.2245 185.844 31.7727 186.129 31.4472 186.699C31.1217 187.267 30.9589 188.07 30.9589 189.109C30.9589 189.802 31.0318 190.391 31.1777 190.875C31.3235 191.359 31.5331 191.728 31.8066 191.98C32.0826 192.233 32.4147 192.359 32.8027 192.359Z" fill="#0B1426"/>
<path d="M-0.093811 132.469V131.672L3.42181 126.109H3.99994V127.344H3.60931L0.953064 131.547V131.609H5.68744V132.469H-0.093811ZM3.67181 134.109V132.227V131.855V126.109H4.59369V134.109H3.67181ZM9.80756 134.219C9.47943 134.214 9.15131 134.151 8.82318 134.031C8.49506 133.911 8.19558 133.71 7.92474 133.426C7.65391 133.139 7.43646 132.753 7.2724 132.266C7.10834 131.776 7.02631 131.161 7.02631 130.422C7.02631 129.714 7.09271 129.086 7.22552 128.539C7.35834 127.99 7.55105 127.527 7.80365 127.152C8.05625 126.775 8.36094 126.488 8.71771 126.293C9.07709 126.098 9.48204 126 9.93256 126C10.3805 126 10.7789 126.09 11.1279 126.27C11.4794 126.447 11.7659 126.694 11.9872 127.012C12.2086 127.329 12.3518 127.695 12.4169 128.109H11.4638C11.3753 127.75 11.2034 127.452 10.9482 127.215C10.693 126.978 10.3544 126.859 9.93256 126.859C9.31276 126.859 8.82448 127.129 8.46771 127.668C8.11355 128.207 7.93516 128.964 7.93256 129.937H7.99506C8.14089 129.716 8.31407 129.527 8.51459 129.371C8.71771 129.212 8.94167 129.09 9.18646 129.004C9.43125 128.918 9.69037 128.875 9.96381 128.875C10.4221 128.875 10.8414 128.99 11.2216 129.219C11.6018 129.445 11.9065 129.759 12.1357 130.16C12.3648 130.559 12.4794 131.016 12.4794 131.531C12.4794 132.026 12.3688 132.479 12.1474 132.891C11.926 133.299 11.6148 133.625 11.2138 133.867C10.8154 134.107 10.3466 134.224 9.80756 134.219ZM9.80756 133.359C10.1357 133.359 10.43 133.277 10.6904 133.113C10.9534 132.949 11.1604 132.729 11.3115 132.453C11.4651 132.177 11.5419 131.87 11.5419 131.531C11.5419 131.201 11.4677 130.9 11.3193 130.629C11.1734 130.355 10.9716 130.138 10.7138 129.977C10.4586 129.815 10.1669 129.734 9.83881 129.734C9.59141 129.734 9.36094 129.784 9.1474 129.883C8.93386 129.979 8.74636 130.112 8.5849 130.281C8.42605 130.451 8.30105 130.645 8.2099 130.863C8.11875 131.079 8.07318 131.307 8.07318 131.547C8.07318 131.865 8.1474 132.161 8.29584 132.437C8.44688 132.714 8.65261 132.936 8.91302 133.105C9.17605 133.275 9.47422 133.359 9.80756 133.359ZM15.0302 133.016L14.9677 133.437C14.9234 133.734 14.8557 134.052 14.7646 134.391C14.676 134.729 14.5836 135.048 14.4872 135.348C14.3909 135.647 14.3115 135.885 14.249 136.063H13.5458C13.5797 135.896 13.624 135.676 13.6786 135.402C13.7333 135.129 13.788 134.823 13.8427 134.484C13.9 134.148 13.9469 133.805 13.9833 133.453L14.0302 133.016H15.0302ZM19.0527 134.219C18.4641 134.219 17.9628 134.059 17.5488 133.738C17.1347 133.415 16.8183 132.948 16.5995 132.336C16.3808 131.721 16.2714 130.979 16.2714 130.109C16.2714 129.245 16.3808 128.507 16.5995 127.895C16.8209 127.28 17.1386 126.811 17.5527 126.488C17.9693 126.163 18.4693 126 19.0527 126C19.636 126 20.1347 126.163 20.5488 126.488C20.9654 126.811 21.2831 127.28 21.5019 127.895C21.7232 128.507 21.8339 129.245 21.8339 130.109C21.8339 130.979 21.7245 131.721 21.5058 132.336C21.287 132.948 20.9706 133.415 20.5566 133.738C20.1425 134.059 19.6412 134.219 19.0527 134.219ZM19.0527 133.359C19.636 133.359 20.0891 133.078 20.412 132.516C20.735 131.953 20.8964 131.151 20.8964 130.109C20.8964 129.417 20.8222 128.827 20.6738 128.34C20.5279 127.853 20.317 127.482 20.041 127.227C19.7675 126.971 19.4381 126.844 19.0527 126.844C18.4745 126.844 18.0227 127.129 17.6972 127.699C17.3717 128.267 17.2089 129.07 17.2089 130.109C17.2089 130.802 17.2818 131.391 17.4277 131.875C17.5735 132.359 17.7831 132.728 18.0566 132.98C18.3326 133.233 18.6647 133.359 19.0527 133.359ZM25.9277 134.219C25.3391 134.219 24.8378 134.059 24.4238 133.738C24.0097 133.415 23.6933 132.948 23.4745 132.336C23.2558 131.721 23.1464 130.979 23.1464 130.109C23.1464 129.245 23.2558 128.507 23.4745 127.895C23.6959 127.28 24.0136 126.811 24.4277 126.488C24.8443 126.163 25.3443 126 25.9277 126C26.511 126 27.0097 126.163 27.4238 126.488C27.8404 126.811 28.1581 127.28 28.3769 127.895C28.5982 128.507 28.7089 129.245 28.7089 130.109C28.7089 130.979 28.5995 131.721 28.3808 132.336C28.162 132.948 27.8456 133.415 27.4316 133.738C27.0175 134.059 26.5162 134.219 25.9277 134.219ZM25.9277 133.359C26.511 133.359 26.9641 133.078 27.287 132.516C27.61 131.953 27.7714 131.151 27.7714 130.109C27.7714 129.417 27.6972 128.827 27.5488 128.34C27.4029 127.853 27.192 127.482 26.916 127.227C26.6425 126.971 26.3131 126.844 25.9277 126.844C25.3495 126.844 24.8977 127.129 24.5722 127.699C24.2467 128.267 24.0839 129.07 24.0839 130.109C24.0839 130.802 24.1568 131.391 24.3027 131.875C24.4485 132.359 24.6581 132.728 24.9316 132.98C25.2076 133.233 25.5397 133.359 25.9277 133.359ZM32.8027 134.219C32.2141 134.219 31.7128 134.059 31.2988 133.738C30.8847 133.415 30.5683 132.948 30.3495 132.336C30.1308 131.721 30.0214 130.979 30.0214 130.109C30.0214 129.245 30.1308 128.507 30.3495 127.895C30.5709 127.28 30.8886 126.811 31.3027 126.488C31.7193 126.163 32.2193 126 32.8027 126C33.386 126 33.8847 126.163 34.2988 126.488C34.7154 126.811 35.0331 127.28 35.2519 127.895C35.4732 128.507 35.5839 129.245 35.5839 130.109C35.5839 130.979 35.4745 131.721 35.2558 132.336C35.037 132.948 34.7206 133.415 34.3066 133.738C33.8925 134.059 33.3912 134.219 32.8027 134.219ZM32.8027 133.359C33.386 133.359 33.8391 133.078 34.162 132.516C34.485 131.953 34.6464 131.151 34.6464 130.109C34.6464 129.417 34.5722 128.827 34.4238 128.34C34.2779 127.853 34.067 127.482 33.791 127.227C33.5175 126.971 33.1881 126.844 32.8027 126.844C32.2245 126.844 31.7727 127.129 31.4472 127.699C31.1217 128.267 30.9589 129.07 30.9589 130.109C30.9589 130.802 31.0318 131.391 31.1777 131.875C31.3235 132.359 31.5331 132.728 31.8066 132.98C32.0826 133.233 32.4147 133.359 32.8027 133.359Z" fill="#0B1426"/>
<path d="M1.38959 73.4687V72.6719L4.90521 67.1094H5.48334V68.3438H5.09271L2.43646 72.5469V72.6094H7.17084V73.4687H1.38959ZM5.15521 75.1094V73.2266V72.8555V67.1094H6.07709V75.1094H5.15521ZM8.8847 75.1094L12.4628 68.0312V67.9687H8.33783V67.1094H13.4628V68.0156L9.90033 75.1094H8.8847ZM14.9345 74.0156L14.872 74.4375C14.8277 74.7344 14.76 75.0521 14.6689 75.3906C14.5803 75.7292 14.4879 76.0482 14.3915 76.3477C14.2952 76.6471 14.2158 76.8854 14.1533 77.0625H13.4501C13.484 76.8958 13.5283 76.6758 13.5829 76.4023C13.6376 76.1289 13.6923 75.8229 13.747 75.4844C13.8043 75.1484 13.8512 74.8047 13.8876 74.4531L13.9345 74.0156H14.9345ZM18.957 75.2187C18.3684 75.2187 17.8671 75.0586 17.4531 74.7383C17.039 74.4154 16.7226 73.9479 16.5038 73.3359C16.2851 72.7214 16.1757 71.9792 16.1757 71.1094C16.1757 70.2448 16.2851 69.5065 16.5038 68.8945C16.7252 68.2799 17.0429 67.8112 17.457 67.4883C17.8736 67.1628 18.3736 67 18.957 67C19.5403 67 20.039 67.1628 20.4531 67.4883C20.8697 67.8112 21.1874 68.2799 21.4062 68.8945C21.6275 69.5065 21.7382 70.2448 21.7382 71.1094C21.7382 71.9792 21.6288 72.7214 21.4101 73.3359C21.1913 73.9479 20.8749 74.4154 20.4609 74.7383C20.0468 75.0586 19.5455 75.2187 18.957 75.2187ZM18.957 74.3594C19.5403 74.3594 19.9934 74.0781 20.3163 73.5156C20.6393 72.9531 20.8007 72.151 20.8007 71.1094C20.8007 70.4167 20.7265 69.8268 20.5781 69.3398C20.4322 68.8529 20.2213 68.4818 19.9453 68.2266C19.6718 67.9714 19.3424 67.8437 18.957 67.8437C18.3788 67.8437 17.927 68.1289 17.6015 68.6992C17.276 69.2669 17.1132 70.0703 17.1132 71.1094C17.1132 71.8021 17.1861 72.3906 17.332 72.875C17.4778 73.3594 17.6874 73.7279 17.9609 73.9805C18.2369 74.2331 18.5689 74.3594 18.957 74.3594ZM25.832 75.2187C25.2434 75.2187 24.7421 75.0586 24.3281 74.7383C23.914 74.4154 23.5976 73.9479 23.3788 73.3359C23.1601 72.7214 23.0507 71.9792 23.0507 71.1094C23.0507 70.2448 23.1601 69.5065 23.3788 68.8945C23.6002 68.2799 23.9179 67.8112 24.332 67.4883C24.7486 67.1628 25.2486 67 25.832 67C26.4153 67 26.914 67.1628 27.3281 67.4883C27.7447 67.8112 28.0624 68.2799 28.2812 68.8945C28.5025 69.5065 28.6132 70.2448 28.6132 71.1094C28.6132 71.9792 28.5038 72.7214 28.2851 73.3359C28.0663 73.9479 27.7499 74.4154 27.3359 74.7383C26.9218 75.0586 26.4205 75.2187 25.832 75.2187ZM25.832 74.3594C26.4153 74.3594 26.8684 74.0781 27.1913 73.5156C27.5143 72.9531 27.6757 72.151 27.6757 71.1094C27.6757 70.4167 27.6015 69.8268 27.4531 69.3398C27.3072 68.8529 27.0963 68.4818 26.8203 68.2266C26.5468 67.9714 26.2174 67.8437 25.832 67.8437C25.2538 67.8437 24.802 68.1289 24.4765 68.6992C24.151 69.2669 23.9882 70.0703 23.9882 71.1094C23.9882 71.8021 24.0611 72.3906 24.207 72.875C24.3528 73.3594 24.5624 73.7279 24.8359 73.9805C25.1119 74.2331 25.4439 74.3594 25.832 74.3594ZM32.707 75.2187C32.1184 75.2187 31.6171 75.0586 31.2031 74.7383C30.789 74.4154 30.4726 73.9479 30.2538 73.3359C30.0351 72.7214 29.9257 71.9792 29.9257 71.1094C29.9257 70.2448 30.0351 69.5065 30.2538 68.8945C30.4752 68.2799 30.7929 67.8112 31.207 67.4883C31.6236 67.1628 32.1236 67 32.707 67C33.2903 67 33.789 67.1628 34.2031 67.4883C34.6197 67.8112 34.9374 68.2799 35.1562 68.8945C35.3775 69.5065 35.4882 70.2448 35.4882 71.1094C35.4882 71.9792 35.3788 72.7214 35.1601 73.3359C34.9413 73.9479 34.6249 74.4154 34.2109 74.7383C33.7968 75.0586 33.2955 75.2187 32.707 75.2187ZM32.707 74.3594C33.2903 74.3594 33.7434 74.0781 34.0663 73.5156C34.3893 72.9531 34.5507 72.151 34.5507 71.1094C34.5507 70.4167 34.4765 69.8268 34.3281 69.3398C34.1822 68.8529 33.9713 68.4818 33.6953 68.2266C33.4218 67.9714 33.0924 67.8437 32.707 67.8437C32.1288 67.8437 31.677 68.1289 31.3515 68.6992C31.026 69.2669 30.8632 70.0703 30.8632 71.1094C30.8632 71.8021 30.9361 72.3906 31.082 72.875C31.2278 73.3594 31.4374 73.7279 31.7109 73.9805C31.9869 74.2331 32.3189 74.3594 32.707 74.3594Z" fill="#0B1426"/>
</g>
<defs>
<linearGradient id="paint0_linear_1_537" x1="39.8203" y1="107.241" x2="39.8203" y2="426.11" gradientUnits="userSpaceOnUse">
<stop stop-color="#1053D2" stop-opacity="0.2"/>
<stop offset="0.95" stop-color="white" stop-opacity="0.05"/>
</linearGradient>
<clipPath id="clip0_1_537">
<rect width="916" height="400" fill="white" transform="translate(0 61)"/>
</clipPath>
</defs>
</svg>
